OstrichSans-InlineRegular.ufo
<glyph name="exclam" format="1">
  <advance width="130"/>
  <unicode hex="0021"/>
  <outline>
    <contour>
      <point x="25" y="58" type="line"/>
      <point x="43" y="58" type="line"/>
      <point x="43" y="28" type="line"/>
      <point x="25" y="28" type="line"/>
    </contour>
    <contour>
      <point x="43" y="647" type="line"/>
      <point x="43" y="141" type="line"/>
      <point x="25" y="141" type="line"/>
      <point x="25" y="647" type="line"/>
    </contour>
    <contour>
      <point x="-3" y="675" type="line"/>
      <point x="-3" y="114" type="line"/>
      <point x="71" y="114" type="line"/>
      <point x="71" y="675" type="line"/>
    </contour>
    <contour>
      <point x="-3" y="1" type="line"/>
      <point x="71" y="1" type="line"/>
      <point x="71" y="85" type="line"/>
      <point x="-3" y="85" type="line"/>
    </contour>
  </outline>
</glyph>
<glyph name="quotedbl" format="1">
  <advance width="201"/>
  <unicode hex="0022"/>
  <outline>
    <contour>
      <point x="140" y="647" type="line"/>
      <point x="140" y="576" type="line"/>
      <point x="122" y="576" type="line"/>
      <point x="122" y="647" type="line"/>
    </contour>
    <contour>
      <point x="27" y="647" type="line"/>
      <point x="45" y="647" type="line"/>
      <point x="45" y="576" type="line"/>
      <point x="27" y="576" type="line"/>
    </contour>
    <contour>
      <point x="-1" y="548" type="line"/>
      <point x="73" y="548" type="line"/>
      <point x="73" y="674" type="line"/>
      <point x="-1" y="674" type="line"/>
    </contour>
    <contour>
      <point x="95" y="674" type="line"/>
      <point x="95" y="548" type="line"/>
      <point x="168" y="548" type="line"/>
      <point x="168" y="674" type="line"/>
    </contour>
  </outline>
</glyph>
<glyph name="percent" format="1">
  <advance width="469"/>
  <unicode hex="0025"/>
  <outline>
    <contour>
      <point x="339" y="647" type="line"/>
      <point x="91" y="28" type="line"/>
      <point x="73" y="28" type="line"/>
      <point x="320" y="647" type="line"/>
    </contour>
    <contour>
      <point x="376" y="231" type="line" smooth="yes"/>
      <point x="376" y="262"/>
      <point x="357" y="293"/>
      <point x="322" y="293" type="curve" smooth="yes"/>
      <point x="287" y="293"/>
      <point x="269" y="263"/>
      <point x="269" y="231" type="curve" smooth="yes"/>
      <point x="269" y="150" type="line" smooth="yes"/>
      <point x="269" y="117"/>
      <point x="287" y="87"/>
      <point x="322" y="87" type="curve" smooth="yes"/>
      <point x="357" y="87"/>
      <point x="376" y="118"/>
      <point x="376" y="150" type="curve" smooth="yes"/>
    </contour>
    <contour>
      <point x="367" y="309"/>
      <point x="392" y="273"/>
      <point x="392" y="231" type="curve" smooth="yes"/>
      <point x="392" y="150" type="line" smooth="yes"/>
      <point x="392" y="108"/>
      <point x="367" y="69"/>
      <point x="322" y="69" type="curve" smooth="yes"/>
      <point x="277" y="69"/>
      <point x="252" y="108"/>
      <point x="252" y="150" type="curve" smooth="yes"/>
      <point x="252" y="231" type="line" smooth="yes"/>
      <point x="252" y="273"/>
      <point x="277" y="309"/>
      <point x="322" y="309" type="curve" smooth="yes"/>
    </contour>
    <contour>
      <point x="40" y="411"/>
      <point x="58" y="380"/>
      <point x="93" y="380" type="curve" smooth="yes"/>
      <point x="129" y="380"/>
      <point x="146" y="410"/>
      <point x="146" y="443" type="curve" smooth="yes"/>
      <point x="146" y="523" type="line" smooth="yes"/>
      <point x="146" y="557"/>
      <point x="129" y="585"/>
      <point x="93" y="585" type="curve" smooth="yes"/>
      <point x="58" y="585"/>
      <point x="40" y="556"/>
      <point x="40" y="523" type="curve" smooth="yes"/>
      <point x="40" y="443" type="line" smooth="yes"/>
    </contour>
    <contour>
      <point x="164" y="400"/>
      <point x="138" y="363"/>
      <point x="93" y="363" type="curve" smooth="yes"/>
      <point x="49" y="363"/>
      <point x="22" y="401"/>
      <point x="22" y="443" type="curve" smooth="yes"/>
      <point x="22" y="523" type="line" smooth="yes"/>
      <point x="22" y="565"/>
      <point x="49" y="604"/>
      <point x="93" y="604" type="curve" smooth="yes"/>
      <point x="138" y="604"/>
      <point x="164" y="566"/>
      <point x="164" y="523" type="curve" smooth="yes"/>
      <point x="164" y="443" type="line" smooth="yes"/>
    </contour>
    <contour>
      <point x="192" y="523" type="line" smooth="yes"/>
      <point x="192" y="580"/>
      <point x="155" y="632"/>
      <point x="93" y="632" type="curve" smooth="yes"/>
      <point x="31" y="632"/>
      <point x="-6" y="579"/>
      <point x="-6" y="523" type="curve" smooth="yes"/>
      <point x="-6" y="443" type="line" smooth="yes"/>
      <point x="-6" y="387"/>
      <point x="31" y="335"/>
      <point x="93" y="335" type="curve" smooth="yes"/>
      <point x="155" y="335"/>
      <point x="192" y="386"/>
      <point x="192" y="443" type="curve" smooth="yes"/>
    </contour>
    <contour>
      <point x="68" y="523" type="line" smooth="yes"/>
      <point x="68" y="541"/>
      <point x="76" y="557"/>
      <point x="93" y="557" type="curve" smooth="yes"/>
      <point x="110" y="557"/>
      <point x="118" y="542"/>
      <point x="118" y="523" type="curve" smooth="yes"/>
      <point x="118" y="443" type="line" smooth="yes"/>
      <point x="118" y="424"/>
      <point x="110" y="408"/>
      <point x="93" y="408" type="curve" smooth="yes"/>
      <point x="76" y="408"/>
      <point x="68" y="424"/>
      <point x="68" y="443" type="curve" smooth="yes"/>
    </contour>
    <contour>
      <point x="260" y="337"/>
      <point x="224" y="287"/>
      <point x="224" y="231" type="curve" smooth="yes"/>
      <point x="224" y="150" type="line" smooth="yes"/>
      <point x="224" y="95"/>
      <point x="260" y="41"/>
      <point x="322" y="41" type="curve" smooth="yes"/>
      <point x="385" y="41"/>
      <point x="420" y="95"/>
      <point x="420" y="150" type="curve" smooth="yes"/>
      <point x="420" y="231" type="line" smooth="yes"/>
      <point x="420" y="287"/>
      <point x="385" y="337"/>
      <point x="322" y="337" type="curve" smooth="yes"/>
    </contour>
    <contour>
      <point x="348" y="150" type="line" smooth="yes"/>
      <point x="348" y="131"/>
      <point x="339" y="115"/>
      <point x="322" y="115" type="curve" smooth="yes"/>
      <point x="305" y="115"/>
      <point x="297" y="131"/>
      <point x="297" y="150" type="curve" smooth="yes"/>
      <point x="297" y="231" type="line" smooth="yes"/>
      <point x="297" y="249"/>
      <point x="306" y="265"/>
      <point x="322" y="265" type="curve" smooth="yes"/>
      <point x="339" y="265"/>
      <point x="348" y="248"/>
      <point x="348" y="231" type="curve" smooth="yes"/>
    </contour>
    <contour>
      <point x="301" y="674" type="line"/>
      <point x="32" y="0" type="line"/>
      <point x="109" y="0" type="line"/>
      <point x="379" y="674" type="line"/>
    </contour>
  </outline>
</glyph>
<glyph name="quotesingle" format="1">
  <advance width="101"/>
  <unicode hex="0027"/>
  <outline>
    <contour>
      <point x="26" y="647" type="line"/>
      <point x="44" y="647" type="line"/>
      <point x="44" y="576" type="line"/>
      <point x="26" y="576" type="line"/>
    </contour>
    <contour>
      <point x="-2" y="548" type="line"/>
      <point x="72" y="548" type="line"/>
      <point x="72" y="674" type="line"/>
      <point x="-2" y="674" type="line"/>
    </contour>
  </outline>
</glyph>
<glyph name="parenright" format="1">
  <advance width="178"/>
  <unicode hex="0029"/>
  <outline>
    <contour>
      <point x="33" y="46" type="line"/>
      <point x="97" y="125"/>
      <point x="108" y="252"/>
      <point x="108" y="339" type="curve" smooth="yes"/>
      <point x="108" y="420"/>
      <point x="91" y="554"/>
      <point x="34" y="625" type="curve"/>
      <point x="44" y="644" type="line"/>
      <point x="117" y="556"/>
      <point x="130" y="427"/>
      <point x="130" y="339" type="curve" smooth="yes"/>
      <point x="130" y="252"/>
      <point x="118" y="120"/>
      <point x="46" y="33" type="curve"/>
    </contour>
    <contour>
      <point x="46" y="-6" type="line"/>
      <point x="138" y="84"/>
      <point x="154" y="247"/>
      <point x="154" y="339" type="curve" smooth="yes"/>
      <point x="154" y="432"/>
      <point x="136" y="598"/>
      <point x="35" y="689" type="curve"/>
      <point x="0" y="619" type="line"/>
      <point x="69" y="556"/>
      <point x="85" y="415"/>
      <point x="85" y="339" type="curve" smooth="yes"/>
      <point x="85" y="237"/>
      <point x="65" y="121"/>
      <point x="-4" y="44" type="curve"/>
    </contour>
  </outline>
</glyph>
<glyph name="comma" format="1">
  <advance width="99"/>
  <unicode hex="002C"/>
  <outline>
    <contour>
      <point x="-1" y="-31" type="line"/>
      <point x="23" y="37" type="line"/>
      <point x="45" y="37" type="line"/>
      <point x="15" y="-31" type="line"/>
    </contour>
    <contour>
      <point x="34" y="-59" type="line"/>
      <point x="86" y="64" type="line"/>
      <point x="4" y="64" type="line"/>
      <point x="-41" y="-59" type="line"/>
    </contour>
  </outline>
</glyph>
<glyph name="hyphen" format="1">
  <advance width="319"/>
  <unicode hex="002D"/>
  <outline>
    <contour>
      <point x="33" y="325" type="line"/>
      <point x="33" y="343" type="line"/>
      <point x="249" y="343" type="line"/>
      <point x="249" y="325" type="line"/>
    </contour>
    <contour>
      <point x="276" y="298" type="line"/>
      <point x="276" y="371" type="line"/>
      <point x="5" y="371" type="line"/>
      <point x="5" y="298" type="line"/>
    </contour>
  </outline>
</glyph>
<glyph name="slash" format="1">
  <advance width="388"/>
  <unicode hex="002F"/>
  <outline>
    <contour>
      <point x="311" y="647" type="line"/>
      <point x="63" y="28" type="line"/>
      <point x="44" y="28" type="line"/>
      <point x="291" y="647" type="line"/>
    </contour>
    <contour>
      <point x="272" y="674" type="line"/>
      <point x="3" y="0" type="line"/>
      <point x="81" y="0" type="line"/>
      <point x="351" y="674" type="line"/>
    </contour>
  </outline>
</glyph>
<glyph name="zero" format="1">
  <advance width="354"/>
  <unicode hex="0030"/>
  <outline>
    <contour>
      <point x="71" y="633"/>
      <point x="46" y="567"/>
      <point x="46" y="497" type="curve" smooth="yes"/>
      <point x="46" y="180" type="line" smooth="yes"/>
      <point x="46" y="111"/>
      <point x="70" y="41"/>
      <point x="150" y="41" type="curve" smooth="yes"/>
      <point x="230" y="41"/>
      <point x="252" y="110"/>
      <point x="252" y="179" type="curve" smooth="yes"/>
      <point x="252" y="496" type="line" smooth="yes"/>
      <point x="252" y="564"/>
      <point x="231" y="633"/>
      <point x="151" y="633" type="curve" smooth="yes"/>
    </contour>
    <contour>
      <point x="66" y="23"/>
      <point x="29" y="92"/>
      <point x="29" y="167" type="curve" smooth="yes"/>
      <point x="29" y="508" type="line" smooth="yes"/>
      <point x="29" y="587"/>
      <point x="64" y="651"/>
      <point x="151" y="651" type="curve" smooth="yes"/>
      <point x="234" y="651"/>
      <point x="270" y="583"/>
      <point x="270" y="508" type="curve" smooth="yes"/>
      <point x="270" y="167" type="line" smooth="yes"/>
      <point x="270" y="91"/>
      <point x="234" y="23"/>
      <point x="150" y="23" type="curve" smooth="yes"/>
    </contour>
    <contour>
      <point x="254" y="-5"/>
      <point x="298" y="76"/>
      <point x="298" y="167" type="curve" smooth="yes"/>
      <point x="298" y="508" type="line" smooth="yes"/>
      <point x="298" y="598"/>
      <point x="254" y="679"/>
      <point x="151" y="679" type="curve" smooth="yes"/>
      <point x="44" y="679"/>
      <point x="1" y="602"/>
      <point x="1" y="508" type="curve" smooth="yes"/>
      <point x="1" y="167" type="line" smooth="yes"/>
      <point x="1" y="77"/>
      <point x="46" y="-5"/>
      <point x="150" y="-5" type="curve" smooth="yes"/>
    </contour>
    <contour>
      <point x="209" y="605"/>
      <point x="224" y="550"/>
      <point x="224" y="496" type="curve" smooth="yes"/>
      <point x="224" y="179" type="line" smooth="yes"/>
      <point x="224" y="124"/>
      <point x="208" y="69"/>
      <point x="150" y="69" type="curve" smooth="yes"/>
      <point x="91" y="69"/>
      <point x="74" y="125"/>
      <point x="74" y="180" type="curve" smooth="yes"/>
      <point x="74" y="497" type="line" smooth="yes"/>
      <point x="74" y="553"/>
      <point x="92" y="605"/>
      <point x="151" y="605" type="curve" smooth="yes"/>
    </contour>
  </outline>
</glyph>
<glyph name="two" format="1">
  <advance width="338"/>
  <unicode hex="0032"/>
  <outline>
    <contour>
      <point x="32" y="28" type="line"/>
      <point x="32" y="317"/>
      <point x="236" y="293"/>
      <point x="236" y="511" type="curve" smooth="yes"/>
      <point x="236" y="571"/>
      <point x="214" y="634"/>
      <point x="142" y="634" type="curve" smooth="yes"/>
      <point x="60" y="634"/>
      <point x="50" y="553"/>
      <point x="50" y="489" type="curve"/>
      <point x="32" y="489" type="line"/>
      <point x="30" y="565"/>
      <point x="49" y="652"/>
      <point x="142" y="652" type="curve" smooth="yes"/>
      <point x="227" y="652"/>
      <point x="254" y="582"/>
      <point x="254" y="509" type="curve" smooth="yes"/>
      <point x="254" y="290"/>
      <point x="53" y="292"/>
      <point x="51" y="45" type="curve"/>
      <point x="254" y="45" type="line"/>
      <point x="254" y="28" type="line"/>
    </contour>
    <contour>
      <point x="282" y="0" type="line"/>
      <point x="282" y="73" type="line"/>
      <point x="79" y="73" type="line"/>
      <point x="87" y="172"/>
      <point x="133" y="223"/>
      <point x="178" y="274" type="curve" smooth="yes"/>
      <point x="231" y="334"/>
      <point x="282" y="392"/>
      <point x="282" y="509" type="curve" smooth="yes"/>
      <point x="282" y="596"/>
      <point x="248" y="680"/>
      <point x="142" y="680" type="curve" smooth="yes"/>
      <point x="25" y="680"/>
      <point x="3" y="563"/>
      <point x="6" y="461" type="curve"/>
      <point x="77" y="461" type="line"/>
      <point x="77" y="525"/>
      <point x="85" y="606"/>
      <point x="142" y="606" type="curve" smooth="yes"/>
      <point x="193" y="606"/>
      <point x="209" y="557"/>
      <point x="209" y="511" type="curve" smooth="yes"/>
      <point x="209" y="420"/>
      <point x="168" y="374"/>
      <point x="125" y="326" type="curve" smooth="yes"/>
      <point x="67" y="262"/>
      <point x="5" y="193"/>
      <point x="5" y="0" type="curve"/>
    </contour>
  </outline>
</glyph>
<glyph name="three" format="1">
  <advance width="324"/>
  <unicode hex="0033"/>
  <outline>
    <contour>
      <point x="252" y="108"/>
      <point x="235" y="23"/>
      <point x="142" y="23" type="curve" smooth="yes"/>
      <point x="43" y="23"/>
      <point x="30" y="112"/>
      <point x="30" y="193" type="curve"/>
      <point x="48" y="193" type="line"/>
      <point x="50" y="127"/>
      <point x="58" y="41"/>
      <point x="142" y="41" type="curve" smooth="yes"/>
      <point x="220" y="41"/>
      <point x="233" y="123"/>
      <point x="233" y="185" type="curve" smooth="yes"/>
      <point x="233" y="268"/>
      <point x="200" y="321"/>
      <point x="114" y="326" type="curve"/>
      <point x="114" y="343" type="line"/>
      <point x="196" y="350"/>
      <point x="233" y="410"/>
      <point x="233" y="489" type="curve" smooth="yes"/>
      <point x="233" y="548"/>
      <point x="219" y="633"/>
      <point x="143" y="633" type="curve" smooth="yes"/>
      <point x="63" y="633"/>
      <point x="50" y="542"/>
      <point x="48" y="480" type="curve"/>
      <point x="30" y="480" type="line"/>
      <point x="32" y="552"/>
      <point x="52" y="651"/>
      <point x="142" y="651" type="curve" smooth="yes"/>
      <point x="230" y="651"/>
      <point x="252" y="560"/>
      <point x="252" y="489" type="curve" smooth="yes"/>
      <point x="252" y="428"/>
      <point x="230" y="354"/>
      <point x="165" y="335" type="curve"/>
      <point x="234" y="317"/>
      <point x="252" y="249"/>
      <point x="252" y="185" type="curve" smooth="yes"/>
    </contour>
    <contour>
      <point x="280" y="241"/>
      <point x="264" y="301"/>
      <point x="223" y="337" type="curve"/>
      <point x="265" y="375"/>
      <point x="280" y="435"/>
      <point x="280" y="489" type="curve" smooth="yes"/>
      <point x="280" y="572"/>
      <point x="252" y="679"/>
      <point x="142" y="679" type="curve" smooth="yes"/>
      <point x="29" y="679"/>
      <point x="5" y="547"/>
      <point x="2" y="453" type="curve"/>
      <point x="74" y="453" type="line"/>
      <point x="76" y="514"/>
      <point x="86" y="605"/>
      <point x="143" y="605" type="curve" smooth="yes"/>
      <point x="196" y="605"/>
      <point x="206" y="537"/>
      <point x="206" y="489" type="curve" smooth="yes"/>
      <point x="206" y="424"/>
      <point x="169" y="376"/>
      <point x="86" y="369" type="curve"/>
      <point x="86" y="299" type="line"/>
      <point x="173" y="295"/>
      <point x="206" y="252"/>
      <point x="206" y="185" type="curve" smooth="yes"/>
      <point x="206" y="135"/>
      <point x="196" y="69"/>
      <point x="142" y="69" type="curve" smooth="yes"/>
      <point x="83" y="69"/>
      <point x="76" y="154"/>
      <point x="74" y="220" type="curve"/>
      <point x="3" y="220" type="line"/>
      <point x="3" y="113"/>
      <point x="18" y="-5"/>
      <point x="142" y="-5" type="curve" smooth="yes"/>
      <point x="258" y="-5"/>
      <point x="280" y="96"/>
      <point x="280" y="185" type="curve" smooth="yes"/>
    </contour>
  </outline>
</glyph>
<glyph name="four" format="1">
  <advance width="344"/>
  <unicode hex="0034"/>
  <outline>
    <contour>
      <point x="250" y="610" type="line"/>
      <point x="50" y="268" type="line"/>
      <point x="250" y="268" type="line"/>
    </contour>
    <contour>
      <point x="268" y="647" type="line"/>
      <point x="268" y="28" type="line"/>
      <point x="250" y="28" type="line"/>
      <point x="250" y="248" type="line"/>
      <point x="30" y="248" type="line"/>
      <point x="30" y="268" type="line"/>
      <point x="250" y="647" type="line"/>
    </contour>
    <contour>
      <point x="234" y="674" type="line"/>
      <point x="2" y="276" type="line"/>
      <point x="2" y="220" type="line"/>
      <point x="223" y="220" type="line"/>
      <point x="223" y="0" type="line"/>
      <point x="296" y="0" type="line"/>
      <point x="296" y="674" type="line"/>
    </contour>
    <contour>
      <point x="223" y="296" type="line"/>
      <point x="98" y="296" type="line"/>
      <point x="223" y="509" type="line"/>
    </contour>
  </outline>
</glyph>
<glyph name="seven" format="1">
  <advance width="277"/>
  <unicode hex="0037"/>
  <outline>
    <contour>
      <point x="204" y="626" type="line"/>
      <point x="204" y="628" type="line"/>
      <point x="25" y="628" type="line"/>
      <point x="25" y="647" type="line"/>
      <point x="226" y="647" type="line"/>
      <point x="226" y="628" type="line"/>
      <point x="36" y="28" type="line"/>
      <point x="18" y="28" type="line"/>
    </contour>
    <contour>
      <point x="-20" y="0" type="line"/>
      <point x="57" y="0" type="line"/>
      <point x="251" y="601" type="line"/>
      <point x="251" y="674" type="line"/>
      <point x="-2" y="674" type="line"/>
      <point x="-2" y="601" type="line"/>
      <point x="166" y="601" type="line"/>
    </contour>
  </outline>
</glyph>
<glyph name="eight" format="1">
  <advance width="352"/>
  <unicode hex="0038"/>
  <outline>
    <contour>
      <point x="226" y="39"/>
      <point x="254" y="112"/>
      <point x="254" y="179" type="curve" smooth="yes"/>
      <point x="254" y="251"/>
      <point x="235" y="327"/>
      <point x="148" y="327" type="curve" smooth="yes"/>
      <point x="67" y="327"/>
      <point x="43" y="246"/>
      <point x="43" y="179" type="curve" smooth="yes"/>
      <point x="43" y="111"/>
      <point x="68" y="39"/>
      <point x="148" y="39" type="curve" smooth="yes"/>
    </contour>
    <contour>
      <point x="50" y="422"/>
      <point x="64" y="343"/>
      <point x="148" y="343" type="curve" smooth="yes"/>
      <point x="234" y="343"/>
      <point x="246" y="420"/>
      <point x="246" y="489" type="curve" smooth="yes"/>
      <point x="246" y="555"/>
      <point x="230" y="633"/>
      <point x="148" y="633" type="curve" smooth="yes"/>
      <point x="65" y="633"/>
      <point x="50" y="555"/>
      <point x="50" y="489" type="curve" smooth="yes"/>
    </contour>
    <contour>
      <point x="265" y="435"/>
      <point x="261" y="362"/>
      <point x="200" y="335" type="curve"/>
      <point x="261" y="309"/>
      <point x="272" y="239"/>
      <point x="272" y="181" type="curve" smooth="yes"/>
      <point x="272" y="103"/>
      <point x="238" y="21"/>
      <point x="148" y="21" type="curve" smooth="yes"/>
      <point x="54" y="21"/>
      <point x="25" y="100"/>
      <point x="25" y="181" type="curve" smooth="yes"/>
      <point x="25" y="237"/>
      <point x="42" y="306"/>
      <point x="94" y="335" type="curve"/>
      <point x="39" y="367"/>
      <point x="32" y="434"/>
      <point x="32" y="492" type="curve" smooth="yes"/>
      <point x="32" y="570"/>
      <point x="54" y="651"/>
      <point x="148" y="651" type="curve" smooth="yes"/>
      <point x="240" y="651"/>
      <point x="265" y="569"/>
      <point x="265" y="492" type="curve" smooth="yes"/>
    </contour>
    <contour>
      <point x="292" y="583"/>
      <point x="262" y="679"/>
      <point x="148" y="679" type="curve" smooth="yes"/>
      <point x="32" y="679"/>
      <point x="5" y="584"/>
      <point x="5" y="492" type="curve" smooth="yes"/>
      <point x="5" y="438"/>
      <point x="9" y="377"/>
      <point x="50" y="335" type="curve"/>
      <point x="11" y="295"/>
      <point x="-2" y="232"/>
      <point x="-2" y="181" type="curve" smooth="yes"/>
      <point x="-2" y="86"/>
      <point x="33" y="-6"/>
      <point x="148" y="-6" type="curve" smooth="yes"/>
      <point x="258" y="-6"/>
      <point x="300" y="89"/>
      <point x="300" y="181" type="curve" smooth="yes"/>
      <point x="300" y="233"/>
      <point x="290" y="297"/>
      <point x="249" y="336" type="curve"/>
      <point x="288" y="377"/>
      <point x="292" y="442"/>
      <point x="292" y="492" type="curve" smooth="yes"/>
    </contour>
    <contour>
      <point x="77" y="542"/>
      <point x="88" y="605"/>
      <point x="148" y="605" type="curve" smooth="yes"/>
      <point x="207" y="605"/>
      <point x="219" y="542"/>
      <point x="219" y="489" type="curve" smooth="yes"/>
      <point x="219" y="433"/>
      <point x="210" y="371"/>
      <point x="148" y="371" type="curve" smooth="yes"/>
      <point x="88" y="371"/>
      <point x="77" y="434"/>
      <point x="77" y="489" type="curve" smooth="yes"/>
    </contour>
    <contour>
      <point x="89" y="67"/>
      <point x="71" y="125"/>
      <point x="71" y="179" type="curve" smooth="yes"/>
      <point x="71" y="233"/>
      <point x="88" y="299"/>
      <point x="148" y="299" type="curve" smooth="yes"/>
      <point x="212" y="299"/>
      <point x="226" y="237"/>
      <point x="226" y="179" type="curve" smooth="yes"/>
      <point x="226" y="125"/>
      <point x="206" y="67"/>
      <point x="148" y="67" type="curve" smooth="yes"/>
    </contour>
  </outline>
</glyph>
<glyph name="colon" format="1">
  <advance width="133"/>
  <unicode hex="003A"/>
  <outline>
    <contour>
      <point x="30" y="202" type="line"/>
      <point x="48" y="202" type="line"/>
      <point x="48" y="161" type="line"/>
      <point x="30" y="161" type="line"/>
    </contour>
    <contour>
      <point x="48" y="478" type="line"/>
      <point x="48" y="437" type="line"/>
      <point x="30" y="437" type="line"/>
      <point x="30" y="478" type="line"/>
    </contour>
    <contour>
      <point x="2" y="505" type="line"/>
      <point x="2" y="410" type="line"/>
      <point x="76" y="410" type="line"/>
      <point x="76" y="505" type="line"/>
    </contour>
    <contour>
      <point x="2" y="133" type="line"/>
      <point x="76" y="133" type="line"/>
      <point x="76" y="230" type="line"/>
      <point x="2" y="230" type="line"/>
    </contour>
  </outline>
</glyph>
<glyph name="less" format="1">
  <advance width="257"/>
  <unicode hex="003C"/>
  <outline>
    <contour>
      <point x="184" y="647" type="line"/>
      <point x="60" y="337" type="line"/>
      <point x="184" y="28" type="line"/>
      <point x="164" y="28" type="line"/>
      <point x="40" y="337" type="line"/>
      <point x="164" y="647" type="line"/>
    </contour>
    <contour>
      <point x="146" y="674" type="line"/>
      <point x="11" y="337" type="line"/>
      <point x="146" y="0" type="line"/>
      <point x="224" y="0" type="line"/>
      <point x="90" y="337" type="line"/>
      <point x="224" y="674" type="line"/>
    </contour>
  </outline>
</glyph>
<glyph name="equal" format="1">
  <advance width="332"/>
  <unicode hex="003D"/>
  <outline>
    <contour>
      <point x="249" y="243" type="line"/>
      <point x="33" y="243" type="line"/>
      <point x="33" y="261" type="line"/>
      <point x="249" y="261" type="line"/>
    </contour>
    <contour>
      <point x="249" y="440" type="line"/>
      <point x="33" y="440" type="line"/>
      <point x="33" y="457" type="line"/>
      <point x="249" y="457" type="line"/>
    </contour>
    <contour>
      <point x="276" y="485" type="line"/>
      <point x="5" y="485" type="line"/>
      <point x="5" y="412" type="line"/>
      <point x="276" y="412" type="line"/>
    </contour>
    <contour>
      <point x="276" y="288" type="line"/>
      <point x="5" y="288" type="line"/>
      <point x="5" y="216" type="line"/>
      <point x="276" y="216" type="line"/>
    </contour>
  </outline>
</glyph>
<glyph name="greater" format="1">
  <advance width="257"/>
  <unicode hex="003E"/>
  <outline>
    <contour>
      <point x="62" y="647" type="line"/>
      <point x="185" y="337" type="line"/>
      <point x="62" y="28" type="line"/>
      <point x="42" y="28" type="line"/>
      <point x="167" y="337" type="line"/>
      <point x="42" y="647" type="line"/>
    </contour>
    <contour>
      <point x="1" y="674" type="line"/>
      <point x="41" y="575"/>
      <point x="96" y="439"/>
      <point x="137" y="337" type="curve"/>
      <point x="1" y="0" type="line"/>
      <point x="81" y="0" type="line"/>
      <point x="214" y="337" type="line"/>
      <point x="81" y="674" type="line"/>
    </contour>
  </outline>
</glyph>
<glyph name="at" format="1">
  <advance width="667"/>
  <unicode hex="0040"/>
  <outline>
    <contour>
      <point x="355" y="180"/>
      <point x="363" y="290"/>
      <point x="375" y="354" type="curve"/>
      <point x="380" y="376"/>
      <point x="386" y="397"/>
      <point x="386" y="419" type="curve" smooth="yes"/>
      <point x="386" y="461"/>
      <point x="369" y="490"/>
      <point x="324" y="490" type="curve" smooth="yes"/>
      <point x="246" y="490"/>
      <point x="193" y="341"/>
      <point x="193" y="277" type="curve" smooth="yes"/>
      <point x="193" y="231"/>
      <point x="214" y="180"/>
      <point x="268" y="180" type="curve" smooth="yes"/>
    </contour>
    <contour>
      <point x="543" y="111" type="line"/>
      <point x="480" y="67"/>
      <point x="406" y="42"/>
      <point x="329" y="42" type="curve" smooth="yes"/>
      <point x="172" y="42"/>
      <point x="44" y="141"/>
      <point x="44" y="306" type="curve" smooth="yes"/>
      <point x="44" y="483"/>
      <point x="168" y="625"/>
      <point x="350" y="625" type="curve" smooth="yes"/>
      <point x="492" y="625"/>
      <point x="575" y="529"/>
      <point x="575" y="391" type="curve" smooth="yes"/>
      <point x="575" y="271"/>
      <point x="512" y="149"/>
      <point x="378" y="149" type="curve" smooth="yes"/>
      <point x="356" y="149"/>
      <point x="344" y="170"/>
      <point x="343" y="189" type="curve"/>
      <point x="326" y="168"/>
      <point x="298" y="161"/>
      <point x="272" y="161" type="curve" smooth="yes"/>
      <point x="203" y="161"/>
      <point x="173" y="213"/>
      <point x="173" y="276" type="curve" smooth="yes"/>
      <point x="173" y="370"/>
      <point x="231" y="509"/>
      <point x="341" y="509" type="curve" smooth="yes"/>
      <point x="369" y="509"/>
      <point x="393" y="487"/>
      <point x="399" y="461" type="curve"/>
      <point x="408" y="500" type="line"/>
      <point x="428" y="500" type="line"/>
      <point x="415" y="444"/>
      <point x="362" y="242"/>
      <point x="362" y="197" type="curve" smooth="yes"/>
      <point x="362" y="186"/>
      <point x="363" y="166"/>
      <point x="380" y="166" type="curve" smooth="yes"/>
      <point x="503" y="166"/>
      <point x="555" y="287"/>
      <point x="555" y="394" type="curve" smooth="yes"/>
      <point x="555" y="523"/>
      <point x="478" y="608"/>
      <point x="347" y="608" type="curve" smooth="yes"/>
      <point x="180" y="608"/>
      <point x="62" y="472"/>
      <point x="62" y="309" type="curve" smooth="yes"/>
      <point x="62" y="153"/>
      <point x="179" y="60"/>
      <point x="329" y="60" type="curve" smooth="yes"/>
      <point x="397" y="60"/>
      <point x="466" y="82"/>
      <point x="524" y="120" type="curve"/>
    </contour>
    <contour>
      <point x="522" y="152" type="line"/>
      <point x="461" y="111"/>
      <point x="392" y="87"/>
      <point x="329" y="87" type="curve" smooth="yes"/>
      <point x="194" y="87"/>
      <point x="90" y="171"/>
      <point x="90" y="309" type="curve" smooth="yes"/>
      <point x="90" y="457"/>
      <point x="196" y="580"/>
      <point x="347" y="580" type="curve" smooth="yes"/>
      <point x="461" y="580"/>
      <point x="528" y="506"/>
      <point x="528" y="394" type="curve" smooth="yes"/>
      <point x="528" y="301"/>
      <point x="485" y="196"/>
      <point x="383" y="194" type="curve"/>
      <point x="388" y="194"/>
      <point x="389" y="197"/>
      <point x="389" y="197" type="curve"/>
      <point x="389" y="230"/>
      <point x="421" y="361"/>
      <point x="442" y="441" type="curve" smooth="yes"/>
      <point x="462" y="527" type="line"/>
      <point x="386" y="527" type="line"/>
      <point x="386" y="526"/>
      <point x="385" y="523"/>
      <point x="385" y="523" type="curve"/>
      <point x="373" y="531"/>
      <point x="357" y="536"/>
      <point x="341" y="536" type="curve" smooth="yes"/>
      <point x="213" y="536"/>
      <point x="146" y="381"/>
      <point x="146" y="276" type="curve" smooth="yes"/>
      <point x="146" y="198"/>
      <point x="183" y="133"/>
      <point x="272" y="133" type="curve" smooth="yes"/>
      <point x="291" y="133"/>
      <point x="313" y="137"/>
      <point x="330" y="145" type="curve"/>
      <point x="341" y="131"/>
      <point x="358" y="121"/>
      <point x="378" y="121" type="curve" smooth="yes"/>
      <point x="531" y="121"/>
      <point x="602" y="257"/>
      <point x="602" y="391" type="curve" smooth="yes"/>
      <point x="602" y="546"/>
      <point x="509" y="653"/>
      <point x="350" y="653" type="curve" smooth="yes"/>
      <point x="151" y="653"/>
      <point x="16" y="499"/>
      <point x="16" y="306" type="curve" smooth="yes"/>
      <point x="16" y="124"/>
      <point x="158" y="15"/>
      <point x="329" y="15" type="curve" smooth="yes"/>
      <point x="412" y="15"/>
      <point x="505" y="51"/>
      <point x="596" y="115" type="curve"/>
    </contour>
    <contour>
      <point x="234" y="208"/>
      <point x="220" y="243"/>
      <point x="220" y="277" type="curve" smooth="yes"/>
      <point x="220" y="332"/>
      <point x="262" y="463"/>
      <point x="324" y="463" type="curve" smooth="yes"/>
      <point x="349" y="463"/>
      <point x="359" y="444"/>
      <point x="359" y="419" type="curve" smooth="yes"/>
      <point x="359" y="402"/>
      <point x="355" y="388"/>
      <point x="352" y="374" type="curve" smooth="yes"/>
      <point x="349" y="361" type="line"/>
      <point x="343" y="334" type="line"/>
      <point x="334" y="280"/>
      <point x="321" y="208"/>
      <point x="268" y="208" type="curve" smooth="yes"/>
    </contour>
  </outline>
</glyph>
<glyph name="C" format="1">
  <advance width="381"/>
  <unicode hex="0043"/>
  <outline>
    <contour>
      <point x="70" y="21"/>
      <point x="29" y="92"/>
      <point x="29" y="183" type="curve" smooth="yes"/>
      <point x="29" y="492" type="line" smooth="yes"/>
      <point x="29" y="583"/>
      <point x="71" y="653"/>
      <point x="168" y="653" type="curve" smooth="yes"/>
      <point x="266" y="653"/>
      <point x="304" y="583"/>
      <point x="304" y="472" type="curve"/>
      <point x="286" y="472" type="line"/>
      <point x="286" y="555"/>
      <point x="269" y="636"/>
      <point x="168" y="636" type="curve" smooth="yes"/>
      <point x="83" y="636"/>
      <point x="47" y="568"/>
      <point x="47" y="492" type="curve" smooth="yes"/>
      <point x="47" y="183" type="line" smooth="yes"/>
      <point x="47" y="107"/>
      <point x="82" y="39"/>
      <point x="167" y="39" type="curve" smooth="yes"/>
      <point x="268" y="39"/>
      <point x="286" y="121"/>
      <point x="286" y="203" type="curve"/>
      <point x="304" y="203" type="line"/>
      <point x="304" y="107"/>
      <point x="280" y="21"/>
      <point x="167" y="21" type="curve" smooth="yes"/>
    </contour>
    <contour>
      <point x="317" y="-6"/>
      <point x="332" y="105"/>
      <point x="332" y="231" type="curve"/>
      <point x="258" y="231" type="line"/>
      <point x="258" y="137"/>
      <point x="246" y="66"/>
      <point x="167" y="66" type="curve" smooth="yes"/>
      <point x="101" y="66"/>
      <point x="75" y="121"/>
      <point x="75" y="183" type="curve" smooth="yes"/>
      <point x="75" y="492" type="line" smooth="yes"/>
      <point x="75" y="554"/>
      <point x="102" y="608"/>
      <point x="168" y="608" type="curve" smooth="yes"/>
      <point x="254" y="608"/>
      <point x="258" y="527"/>
      <point x="258" y="444" type="curve"/>
      <point x="332" y="444" type="line"/>
      <point x="332" y="599"/>
      <point x="302" y="681"/>
      <point x="168" y="681" type="curve" smooth="yes"/>
      <point x="52" y="681"/>
      <point x="1" y="599"/>
      <point x="1" y="492" type="curve" smooth="yes"/>
      <point x="1" y="183" type="line" smooth="yes"/>
      <point x="1" y="76"/>
      <point x="51" y="-6"/>
      <point x="167" y="-6" type="curve" smooth="yes"/>
    </contour>
  </outline>
</glyph>
<glyph name="I" format="1">
  <advance width="144"/>
  <unicode hex="0049"/>
  <outline>
    <contour>
      <point x="34" y="28" type="line"/>
      <point x="34" y="647" type="line"/>
      <point x="53" y="647" type="line"/>
      <point x="53" y="28" type="line"/>
    </contour>
    <contour>
      <point x="80" y="0" type="line"/>
      <point x="80" y="674" type="line"/>
      <point x="7" y="674" type="line"/>
      <point x="7" y="0" type="line"/>
    </contour>
  </outline>
</glyph>
<glyph name="J" format="1">
  <advance width="355"/>
  <unicode hex="004A"/>
  <outline>
    <contour>
      <point x="55" y="21"/>
      <point x="20" y="79"/>
      <point x="20" y="198" type="curve"/>
      <point x="39" y="198" type="line"/>
      <point x="39" y="120"/>
      <point x="52" y="39"/>
      <point x="144" y="39" type="curve" smooth="yes"/>
      <point x="230" y="39"/>
      <point x="251" y="116"/>
      <point x="251" y="186" type="curve" smooth="yes"/>
      <point x="251" y="650" type="line"/>
      <point x="269" y="650" type="line"/>
      <point x="269" y="177" type="line" smooth="yes"/>
      <point x="269" y="94"/>
      <point x="239" y="21"/>
      <point x="144" y="21" type="curve" smooth="yes"/>
    </contour>
    <contour>
      <point x="260" y="-6"/>
      <point x="297" y="79"/>
      <point x="297" y="177" type="curve" smooth="yes"/>
      <point x="297" y="678" type="line"/>
      <point x="223" y="678" type="line"/>
      <point x="223" y="186" type="line" smooth="yes"/>
      <point x="223" y="129"/>
      <point x="208" y="66"/>
      <point x="144" y="66" type="curve" smooth="yes"/>
      <point x="69" y="66"/>
      <point x="66" y="152"/>
      <point x="66" y="226" type="curve"/>
      <point x="-7" y="226" type="line"/>
      <point x="-7" y="75"/>
      <point x="24" y="-6"/>
      <point x="144" y="-6" type="curve" smooth="yes"/>
    </contour>
  </outline>
</glyph>
<glyph name="S" format="1">
  <advance width="363"/>
  <unicode hex="0053"/>
  <outline>
    <contour>
      <point x="59" y="22"/>
      <point x="30" y="92"/>
      <point x="30" y="202" type="curve"/>
      <point x="49" y="202" type="line"/>
      <point x="49" y="134"/>
      <point x="61" y="39"/>
      <point x="160" y="39" type="curve" smooth="yes"/>
      <point x="237" y="39"/>
      <point x="275" y="85"/>
      <point x="275" y="161" type="curve" smooth="yes"/>
      <point x="275" y="217"/>
      <point x="216" y="281"/>
      <point x="169" y="320" type="curve"/>
      <point x="170" y="320" type="line"/>
      <point x="108" y="365"/>
      <point x="37" y="435"/>
      <point x="37" y="516" type="curve" smooth="yes"/>
      <point x="37" y="593"/>
      <point x="85" y="654"/>
      <point x="165" y="654" type="curve" smooth="yes"/>
      <point x="265" y="654"/>
      <point x="286" y="585"/>
      <point x="286" y="481" type="curve"/>
      <point x="269" y="481" type="line"/>
      <point x="268" y="550"/>
      <point x="262" y="636"/>
      <point x="165" y="636" type="curve" smooth="yes"/>
      <point x="92" y="636"/>
      <point x="54" y="579"/>
      <point x="54" y="511" type="curve" smooth="yes"/>
      <point x="54" y="375"/>
      <point x="293" y="308"/>
      <point x="293" y="162" type="curve" smooth="yes"/>
      <point x="293" y="73"/>
      <point x="250" y="22"/>
      <point x="160" y="22" type="curve" smooth="yes"/>
    </contour>
    <contour>
      <point x="268" y="-6"/>
      <point x="320" y="56"/>
      <point x="320" y="162" type="curve" smooth="yes"/>
      <point x="320" y="245"/>
      <point x="255" y="305"/>
      <point x="190" y="363" type="curve"/>
      <point x="190" y="362" type="line"/>
      <point x="136" y="410"/>
      <point x="82" y="456"/>
      <point x="82" y="511" type="curve" smooth="yes"/>
      <point x="82" y="564"/>
      <point x="110" y="608"/>
      <point x="165" y="608" type="curve" smooth="yes"/>
      <point x="236" y="608"/>
      <point x="241" y="532"/>
      <point x="241" y="454" type="curve"/>
      <point x="314" y="454" type="line"/>
      <point x="314" y="580"/>
      <point x="300" y="681"/>
      <point x="165" y="681" type="curve" smooth="yes"/>
      <point x="68" y="681"/>
      <point x="9" y="609"/>
      <point x="9" y="516" type="curve" smooth="yes"/>
      <point x="9" y="424"/>
      <point x="86" y="346"/>
      <point x="153" y="298" type="curve"/>
      <point x="152" y="299" type="line"/>
      <point x="194" y="264"/>
      <point x="247" y="214"/>
      <point x="247" y="161" type="curve" smooth="yes"/>
      <point x="247" y="103"/>
      <point x="218" y="67"/>
      <point x="160" y="67" type="curve" smooth="yes"/>
      <point x="86" y="67"/>
      <point x="76" y="137"/>
      <point x="76" y="230" type="curve"/>
      <point x="3" y="230" type="line"/>
      <point x="3" y="76"/>
      <point x="35" y="-6"/>
      <point x="160" y="-6" type="curve" smooth="yes"/>
    </contour>
  </outline>
</glyph>
<glyph name="T" format="1">
  <advance width="347"/>
  <unicode hex="0054"/>
  <outline>
    <contour>
      <point x="268" y="629" type="line"/>
      <point x="156" y="629" type="line"/>
      <point x="156" y="28" type="line"/>
      <point x="137" y="28" type="line"/>
      <point x="137" y="629" type="line"/>
      <point x="26" y="629" type="line"/>
      <point x="26" y="647" type="line"/>
      <point x="268" y="647" type="line"/>
    </contour>
    <contour>
      <point x="295" y="675" type="line"/>
      <point x="-2" y="675" type="line"/>
      <point x="-2" y="602" type="line"/>
      <point x="110" y="602" type="line"/>
      <point x="110" y="1" type="line"/>
      <point x="183" y="1" type="line"/>
      <point x="183" y="602" type="line"/>
      <point x="295" y="602" type="line"/>
    </contour>
  </outline>
</glyph>
<glyph name="Z" format="1">
  <advance width="355"/>
  <unicode hex="005A"/>
  <outline>
    <contour>
      <point x="45" y="46" type="line"/>
      <point x="282" y="46" type="line"/>
      <point x="282" y="28" type="line"/>
      <point x="25" y="28" type="line"/>
      <point x="25" y="51" type="line"/>
      <point x="260" y="627" type="line"/>
      <point x="260" y="628" type="line"/>
      <point x="40" y="628" type="line"/>
      <point x="40" y="647" type="line"/>
      <point x="279" y="647" type="line"/>
      <point x="279" y="624" type="line"/>
      <point x="45" y="48" type="line"/>
    </contour>
    <contour>
      <point x="306" y="618" type="line"/>
      <point x="306" y="674" type="line"/>
      <point x="12" y="674" type="line"/>
      <point x="12" y="601" type="line"/>
      <point x="220" y="601" type="line"/>
      <point x="-2" y="57" type="line"/>
      <point x="-2" y="0" type="line"/>
      <point x="310" y="0" type="line"/>
      <point x="310" y="73" type="line"/>
      <point x="85" y="73" type="line"/>
    </contour>
  </outline>
</glyph>
<glyph name="bracketleft" format="1">
  <advance width="196"/>
  <unicode hex="005B"/>
  <outline>
    <contour>
      <point x="136" y="647" type="line"/>
      <point x="136" y="629" type="line"/>
      <point x="57" y="629" type="line"/>
      <point x="57" y="45" type="line"/>
      <point x="136" y="45" type="line"/>
      <point x="136" y="28" type="line"/>
      <point x="40" y="28" type="line"/>
      <point x="40" y="647" type="line"/>
    </contour>
    <contour>
      <point x="12" y="674" type="line"/>
      <point x="12" y="0" type="line"/>
      <point x="164" y="0" type="line"/>
      <point x="164" y="73" type="line"/>
      <point x="85" y="73" type="line"/>
      <point x="85" y="602" type="line"/>
      <point x="164" y="602" type="line"/>
      <point x="164" y="674" type="line"/>
    </contour>
  </outline>
</glyph>
<glyph name="bracketright" format="1">
  <advance width="196"/>
  <unicode hex="005D"/>
  <outline>
    <contour>
      <point x="131" y="647" type="line"/>
      <point x="131" y="28" type="line"/>
      <point x="34" y="28" type="line"/>
      <point x="34" y="45" type="line"/>
      <point x="112" y="45" type="line"/>
      <point x="112" y="629" type="line"/>
      <point x="34" y="629" type="line"/>
      <point x="34" y="647" type="line"/>
    </contour>
    <contour>
      <point x="7" y="674" type="line"/>
      <point x="7" y="602" type="line"/>
      <point x="85" y="602" type="line"/>
      <point x="85" y="73" type="line"/>
      <point x="7" y="73" type="line"/>
      <point x="7" y="0" type="line"/>
      <point x="158" y="0" type="line"/>
      <point x="158" y="674" type="line"/>
    </contour>
  </outline>
</glyph>
<glyph name="asciicircum" format="1">
  <advance width="380"/>
  <unicode hex="005E"/>
  <outline>
    <contour>
      <point x="21" y="609" type="line"/>
      <point x="68" y="637"/>
      <point x="115" y="666"/>
      <point x="162" y="694" type="curve"/>
      <point x="303" y="609" type="line"/>
      <point x="303" y="591" type="line"/>
      <point x="162" y="678" type="line"/>
      <point x="21" y="591" type="line"/>
    </contour>
    <contour>
      <point x="-7" y="541" type="line"/>
      <point x="37" y="567"/>
      <point x="113" y="615"/>
      <point x="162" y="646" type="curve"/>
      <point x="331" y="541" type="line"/>
      <point x="331" y="624" type="line"/>
      <point x="162" y="727" type="line"/>
      <point x="-7" y="624" type="line"/>
    </contour>
  </outline>
</glyph>
<glyph name="l" format="1">
  <advance width="281"/>
  <unicode hex="006C"/>
  <outline>
    <contour>
      <point x="195" y="28" type="line"/>
      <point x="24" y="28" type="line"/>
      <point x="24" y="647" type="line"/>
      <point x="42" y="647" type="line"/>
      <point x="42" y="45" type="line"/>
      <point x="195" y="45" type="line"/>
    </contour>
    <contour>
      <point x="222" y="0" type="line"/>
      <point x="222" y="73" type="line"/>
      <point x="69" y="73" type="line"/>
      <point x="69" y="674" type="line"/>
      <point x="-3" y="674" type="line"/>
      <point x="-3" y="0" type="line"/>
    </contour>
  </outline>
</glyph>
<glyph name="p" format="1">
  <advance width="343"/>
  <unicode hex="0070"/>
  <outline>
    <contour>
      <point x="48" y="628" type="line"/>
      <point x="48" y="344" type="line"/>
      <point x="124" y="344" type="line" smooth="yes"/>
      <point x="221" y="344"/>
      <point x="261" y="394"/>
      <point x="261" y="488" type="curve" smooth="yes"/>
      <point x="261" y="579"/>
      <point x="223" y="628"/>
      <point x="128" y="628" type="curve" smooth="yes"/>
    </contour>
    <contour>
      <point x="48" y="28" type="line"/>
      <point x="31" y="28" type="line"/>
      <point x="31" y="647" type="line"/>
      <point x="138" y="647" type="line" smooth="yes"/>
      <point x="239" y="647"/>
      <point x="280" y="581"/>
      <point x="280" y="488" type="curve" smooth="yes"/>
      <point x="280" y="321"/>
      <point x="181" y="326"/>
      <point x="48" y="326" type="curve"/>
    </contour>
    <contour>
      <point x="76" y="298" type="line"/>
      <point x="211" y="298"/>
      <point x="307" y="316"/>
      <point x="307" y="488" type="curve" smooth="yes"/>
      <point x="307" y="598"/>
      <point x="259" y="674"/>
      <point x="138" y="674" type="curve" smooth="yes"/>
      <point x="3" y="674" type="line"/>
      <point x="3" y="0" type="line"/>
      <point x="76" y="0" type="line"/>
    </contour>
    <contour>
      <point x="76" y="601" type="line"/>
      <point x="128" y="601" type="line" smooth="yes"/>
      <point x="204" y="601"/>
      <point x="234" y="561"/>
      <point x="234" y="488" type="curve" smooth="yes"/>
      <point x="234" y="412"/>
      <point x="202" y="372"/>
      <point x="124" y="372" type="curve" smooth="yes"/>
      <point x="76" y="372" type="line"/>
    </contour>
  </outline>
</glyph>
<glyph name="r" format="1">
  <advance width="346"/>
  <unicode hex="0072"/>
  <outline>
    <contour>
      <point x="124" y="344" type="line" smooth="yes"/>
      <point x="225" y="344"/>
      <point x="250" y="390"/>
      <point x="250" y="485" type="curve" smooth="yes"/>
      <point x="250" y="570"/>
      <point x="231" y="628"/>
      <point x="133" y="628" type="curve" smooth="yes"/>
      <point x="39" y="628" type="line"/>
      <point x="39" y="344" type="line"/>
    </contour>
    <contour>
      <point x="268" y="425"/>
      <point x="258" y="355"/>
      <point x="192" y="335" type="curve"/>
      <point x="252" y="321"/>
      <point x="265" y="266"/>
      <point x="265" y="213" type="curve" smooth="yes"/>
      <point x="265" y="28" type="line"/>
      <point x="246" y="28" type="line"/>
      <point x="246" y="210" type="line" smooth="yes"/>
      <point x="246" y="291"/>
      <point x="219" y="326"/>
      <point x="135" y="326" type="curve" smooth="yes"/>
      <point x="39" y="326" type="line"/>
      <point x="39" y="28" type="line"/>
      <point x="20" y="28" type="line"/>
      <point x="20" y="647" type="line"/>
      <point x="137" y="647" type="line" smooth="yes"/>
      <point x="243" y="647"/>
      <point x="268" y="580"/>
      <point x="268" y="485" type="curve" smooth="yes"/>
    </contour>
    <contour>
      <point x="296" y="597"/>
      <point x="266" y="674"/>
      <point x="137" y="674" type="curve" smooth="yes"/>
      <point x="-7" y="674" type="line"/>
      <point x="-7" y="0" type="line"/>
      <point x="66" y="0" type="line"/>
      <point x="66" y="298" type="line"/>
      <point x="135" y="298" type="line" smooth="yes"/>
      <point x="198" y="298"/>
      <point x="219" y="272"/>
      <point x="219" y="210" type="curve" smooth="yes"/>
      <point x="219" y="0" type="line"/>
      <point x="292" y="0" type="line"/>
      <point x="292" y="213" type="line" smooth="yes"/>
      <point x="292" y="258"/>
      <point x="281" y="308"/>
      <point x="250" y="337" type="curve"/>
      <point x="287" y="374"/>
      <point x="296" y="434"/>
      <point x="296" y="485" type="curve" smooth="yes"/>
    </contour>
    <contour>
      <point x="66" y="372" type="line"/>
      <point x="66" y="601" type="line"/>
      <point x="133" y="601" type="line" smooth="yes"/>
      <point x="208" y="601"/>
      <point x="222" y="554"/>
      <point x="222" y="485" type="curve" smooth="yes"/>
      <point x="222" y="409"/>
      <point x="203" y="372"/>
      <point x="124" y="372" type="curve" smooth="yes"/>
    </contour>
  </outline>
</glyph>
<glyph name="u" format="1">
  <advance width="387"/>
  <unicode hex="0075"/>
  <outline>
    <contour>
      <point x="74" y="22"/>
      <point x="28" y="83"/>
      <point x="28" y="171" type="curve"/>
      <point x="27" y="647" type="line"/>
      <point x="45" y="647" type="line"/>
      <point x="45" y="176" type="line" smooth="yes"/>
      <point x="45" y="98"/>
      <point x="83" y="39"/>
      <point x="165" y="39" type="curve" smooth="yes"/>
      <point x="248" y="39"/>
      <point x="286" y="98"/>
      <point x="286" y="176" type="curve" smooth="yes"/>
      <point x="286" y="647" type="line"/>
      <point x="304" y="647" type="line"/>
      <point x="304" y="171" type="line" smooth="yes"/>
      <point x="304" y="83"/>
      <point x="256" y="22"/>
      <point x="165" y="22" type="curve" smooth="yes"/>
    </contour>
    <contour>
      <point x="275" y="-6"/>
      <point x="332" y="66"/>
      <point x="332" y="171" type="curve" smooth="yes"/>
      <point x="332" y="675" type="line"/>
      <point x="258" y="675" type="line"/>
      <point x="258" y="176" type="line" smooth="yes"/>
      <point x="258" y="114"/>
      <point x="229" y="67"/>
      <point x="165" y="67" type="curve" smooth="yes"/>
      <point x="102" y="67"/>
      <point x="73" y="114"/>
      <point x="73" y="176" type="curve" smooth="yes"/>
      <point x="73" y="675" type="line"/>
      <point x="-1" y="675" type="line"/>
      <point x="0" y="171" type="line" smooth="yes"/>
      <point x="0" y="66"/>
      <point x="56" y="-6"/>
      <point x="165" y="-6" type="curve" smooth="yes"/>
    </contour>
  </outline>
</glyph>
<glyph name="braceleft" format="1">
  <advance width="216"/>
  <unicode hex="007B"/>
  <outline>
    <contour>
      <point x="155" y="628" type="line"/>
      <point x="4" y="628"/>
      <point x="132" y="394"/>
      <point x="43" y="329" type="curve"/>
      <point x="43" y="323" type="line"/>
      <point x="126" y="274"/>
      <point x="12" y="46"/>
      <point x="155" y="46" type="curve"/>
      <point x="155" y="28" type="line"/>
      <point x="-15" y="27"/>
      <point x="113" y="267"/>
      <point x="24" y="313" type="curve"/>
      <point x="24" y="339" type="line"/>
      <point x="114" y="378"/>
      <point x="-22" y="647"/>
      <point x="155" y="647" type="curve"/>
    </contour>
    <contour>
      <point x="182" y="674" type="line"/>
      <point x="48" y="674"/>
      <point x="30" y="598"/>
      <point x="30" y="514" type="curve" smooth="yes"/>
      <point x="30" y="502"/>
      <point x="30" y="483"/>
      <point x="31" y="470" type="curve"/>
      <point x="31" y="457"/>
      <point x="32" y="445"/>
      <point x="32" y="433" type="curve" smooth="yes"/>
      <point x="32" y="399"/>
      <point x="26" y="369"/>
      <point x="-3" y="356" type="curve"/>
      <point x="-3" y="296" type="line"/>
      <point x="28" y="280"/>
      <point x="32" y="249"/>
      <point x="32" y="213" type="curve" smooth="yes"/>
      <point x="32" y="154" type="line" smooth="yes"/>
      <point x="32" y="73"/>
      <point x="47" y="-2"/>
      <point x="182" y="0" type="curve"/>
      <point x="182" y="73" type="line"/>
      <point x="113" y="73"/>
      <point x="103" y="114"/>
      <point x="103" y="161" type="curve" smooth="yes"/>
      <point x="103" y="171"/>
      <point x="104" y="181"/>
      <point x="104" y="191" type="curve" smooth="yes"/>
      <point x="104" y="220" type="line" smooth="yes"/>
      <point x="104" y="262"/>
      <point x="102" y="300"/>
      <point x="80" y="327" type="curve"/>
      <point x="101" y="355"/>
      <point x="106" y="393"/>
      <point x="106" y="433" type="curve" smooth="yes"/>
      <point x="106" y="447"/>
      <point x="105" y="465"/>
      <point x="104" y="480" type="curve" smooth="yes"/>
      <point x="103" y="495"/>
      <point x="102" y="509"/>
      <point x="102" y="523" type="curve" smooth="yes"/>
      <point x="102" y="566"/>
      <point x="114" y="601"/>
      <point x="182" y="601" type="curve"/>
    </contour>
  </outline>
</glyph>
<glyph name="bar" format="1">
  <advance width="109"/>
  <unicode hex="007C"/>
  <outline>
    <contour>
      <point x="39" y="28" type="line"/>
      <point x="39" y="653" type="line"/>
      <point x="57" y="653" type="line"/>
      <point x="57" y="28" type="line"/>
    </contour>
    <contour>
      <point x="84" y="0" type="line"/>
      <point x="84" y="681" type="line"/>
      <point x="12" y="681" type="line"/>
      <point x="12" y="0" type="line"/>
    </contour>
  </outline>
</glyph>
<glyph name="copyright" format="1">
  <advance width="751"/>
  <unicode hex="00A9"/>
  <outline>
    <contour>
      <point x="281" y="130"/>
      <point x="255" y="174"/>
      <point x="255" y="235" type="curve" smooth="yes"/>
      <point x="255" y="440" type="line" smooth="yes"/>
      <point x="255" y="500"/>
      <point x="282" y="544"/>
      <point x="345" y="544" type="curve" smooth="yes"/>
      <point x="408" y="544"/>
      <point x="435" y="499"/>
      <point x="435" y="440" type="curve" smooth="yes"/>
      <point x="435" y="427" type="line"/>
      <point x="418" y="427" type="line"/>
      <point x="418" y="477"/>
      <point x="405" y="528"/>
      <point x="345" y="528" type="curve" smooth="yes"/>
      <point x="293" y="528"/>
      <point x="272" y="486"/>
      <point x="272" y="440" type="curve" smooth="yes"/>
      <point x="272" y="235" type="line" smooth="yes"/>
      <point x="272" y="189"/>
      <point x="293" y="146"/>
      <point x="345" y="146" type="curve" smooth="yes"/>
      <point x="404" y="146"/>
      <point x="418" y="198"/>
      <point x="418" y="247" type="curve"/>
      <point x="435" y="247" type="line"/>
      <point x="435" y="184"/>
      <point x="417" y="130"/>
      <point x="345" y="130" type="curve" smooth="yes"/>
    </contour>
    <contour>
      <point x="55" y="177"/>
      <point x="183" y="45"/>
      <point x="347" y="45" type="curve" smooth="yes"/>
      <point x="510" y="45"/>
      <point x="642" y="176"/>
      <point x="642" y="340" type="curve" smooth="yes"/>
      <point x="642" y="503"/>
      <point x="509" y="633"/>
      <point x="347" y="633" type="curve" smooth="yes"/>
      <point x="184" y="633"/>
      <point x="55" y="502"/>
      <point x="55" y="340" type="curve" smooth="yes"/>
    </contour>
    <contour>
      <point x="38" y="511"/>
      <point x="176" y="649"/>
      <point x="347" y="649" type="curve" smooth="yes"/>
      <point x="518" y="649"/>
      <point x="657" y="511"/>
      <point x="657" y="340" type="curve" smooth="yes"/>
      <point x="657" y="169"/>
      <point x="518" y="30"/>
      <point x="347" y="30" type="curve" smooth="yes"/>
      <point x="177" y="30"/>
      <point x="38" y="170"/>
      <point x="38" y="340" type="curve" smooth="yes"/>
    </contour>
    <contour>
      <point x="11" y="155"/>
      <point x="161" y="3"/>
      <point x="347" y="3" type="curve" smooth="yes"/>
      <point x="533" y="3"/>
      <point x="685" y="153"/>
      <point x="685" y="340" type="curve" smooth="yes"/>
      <point x="685" y="526"/>
      <point x="533" y="677"/>
      <point x="347" y="677" type="curve" smooth="yes"/>
      <point x="160" y="677"/>
      <point x="11" y="526"/>
      <point x="11" y="340" type="curve" smooth="yes"/>
    </contour>
    <contour>
      <point x="82" y="487"/>
      <point x="200" y="605"/>
      <point x="347" y="605" type="curve" smooth="yes"/>
      <point x="494" y="605"/>
      <point x="614" y="488"/>
      <point x="614" y="340" type="curve" smooth="yes"/>
      <point x="614" y="192"/>
      <point x="495" y="73"/>
      <point x="347" y="73" type="curve" smooth="yes"/>
      <point x="199" y="73"/>
      <point x="82" y="193"/>
      <point x="82" y="340" type="curve" smooth="yes"/>
    </contour>
    <contour>
      <point x="439" y="103"/>
      <point x="462" y="181"/>
      <point x="462" y="275" type="curve"/>
      <point x="391" y="275" type="line"/>
      <point x="391" y="226"/>
      <point x="382" y="174"/>
      <point x="345" y="174" type="curve" smooth="yes"/>
      <point x="313" y="174"/>
      <point x="300" y="203"/>
      <point x="300" y="235" type="curve" smooth="yes"/>
      <point x="300" y="440" type="line" smooth="yes"/>
      <point x="300" y="471"/>
      <point x="313" y="501"/>
      <point x="345" y="501" type="curve" smooth="yes"/>
      <point x="383" y="501"/>
      <point x="391" y="449"/>
      <point x="391" y="399" type="curve"/>
      <point x="462" y="399" type="line"/>
      <point x="462" y="440" type="line" smooth="yes"/>
      <point x="462" y="514"/>
      <point x="428" y="571"/>
      <point x="345" y="571" type="curve" smooth="yes"/>
      <point x="262" y="571"/>
      <point x="227" y="515"/>
      <point x="227" y="440" type="curve" smooth="yes"/>
      <point x="227" y="235" type="line" smooth="yes"/>
      <point x="227" y="159"/>
      <point x="261" y="103"/>
      <point x="345" y="103" type="curve" smooth="yes"/>
    </contour>
  </outline>
</glyph>
<glyph name="guillemotleft" format="1">
  <advance width="486"/>
  <unicode hex="00AB"/>
  <outline>
    <contour>
      <point x="465" y="647" type="line"/>
      <point x="222" y="337" type="line"/>
      <point x="303" y="234"/>
      <point x="383" y="130"/>
      <point x="465" y="28" type="curve"/>
      <point x="444" y="28" type="line"/>
      <point x="201" y="337" type="line"/>
      <point x="443" y="647" type="line"/>
    </contour>
    <contour>
      <point x="311" y="647" type="line"/>
      <point x="67" y="337" type="line"/>
      <point x="149" y="234"/>
      <point x="229" y="129"/>
      <point x="311" y="28" type="curve"/>
      <point x="290" y="28" type="line"/>
      <point x="46" y="337" type="line"/>
      <point x="289" y="647" type="line"/>
    </contour>
    <contour>
      <point x="276" y="674" type="line"/>
      <point x="10" y="337" type="line"/>
      <point x="277" y="0" type="line"/>
      <point x="368" y="0" type="line"/>
      <point x="320" y="60"/>
      <point x="235" y="166"/>
      <point x="187" y="230" type="curve" smooth="yes"/>
      <point x="102" y="337" type="line"/>
      <point x="368" y="674" type="line"/>
    </contour>
    <contour>
      <point x="429" y="674" type="line"/>
      <point x="165" y="337" type="line"/>
      <point x="430" y="0" type="line"/>
      <point x="522" y="0" type="line"/>
      <point x="481" y="51"/>
      <point x="405" y="148"/>
      <point x="365" y="199" type="curve" smooth="yes"/>
      <point x="257" y="338" type="line"/>
      <point x="523" y="674" type="line"/>
    </contour>
  </outline>
</glyph>
<glyph name="registered" format="1">
  <advance width="751"/>
  <unicode hex="00AE"/>
  <outline>
    <contour>
      <point x="400" y="358"/>
      <point x="410" y="407"/>
      <point x="410" y="451" type="curve" smooth="yes"/>
      <point x="410" y="498"/>
      <point x="396" y="526"/>
      <point x="346" y="526" type="curve" smooth="yes"/>
      <point x="299" y="526" type="line"/>
      <point x="299" y="358" type="line"/>
      <point x="346" y="358" type="line" smooth="yes"/>
    </contour>
    <contour>
      <point x="425" y="415"/>
      <point x="415" y="374"/>
      <point x="385" y="351" type="curve"/>
      <point x="408" y="340"/>
      <point x="423" y="319"/>
      <point x="423" y="293" type="curve" smooth="yes"/>
      <point x="423" y="160" type="line"/>
      <point x="407" y="160" type="line"/>
      <point x="407" y="289" type="line" smooth="yes"/>
      <point x="407" y="332"/>
      <point x="386" y="343"/>
      <point x="346" y="343" type="curve" smooth="yes"/>
      <point x="299" y="343" type="line"/>
      <point x="299" y="160" type="line"/>
      <point x="284" y="160" type="line"/>
      <point x="284" y="541" type="line"/>
      <point x="350" y="541" type="line" smooth="yes"/>
      <point x="410" y="541"/>
      <point x="425" y="505"/>
      <point x="425" y="451" type="curve" smooth="yes"/>
    </contour>
    <contour>
      <point x="55" y="177"/>
      <point x="183" y="45"/>
      <point x="347" y="45" type="curve" smooth="yes"/>
      <point x="510" y="45"/>
      <point x="642" y="176"/>
      <point x="642" y="340" type="curve" smooth="yes"/>
      <point x="642" y="503"/>
      <point x="509" y="633"/>
      <point x="347" y="633" type="curve" smooth="yes"/>
      <point x="184" y="633"/>
      <point x="55" y="502"/>
      <point x="55" y="340" type="curve" smooth="yes"/>
    </contour>
    <contour>
      <point x="38" y="511"/>
      <point x="176" y="649"/>
      <point x="347" y="649" type="curve" smooth="yes"/>
      <point x="518" y="649"/>
      <point x="657" y="511"/>
      <point x="657" y="340" type="curve" smooth="yes"/>
      <point x="657" y="169"/>
      <point x="518" y="30"/>
      <point x="347" y="30" type="curve" smooth="yes"/>
      <point x="177" y="30"/>
      <point x="38" y="170"/>
      <point x="38" y="340" type="curve" smooth="yes"/>
    </contour>
    <contour>
      <point x="11" y="155"/>
      <point x="161" y="3"/>
      <point x="347" y="3" type="curve" smooth="yes"/>
      <point x="533" y="3"/>
      <point x="685" y="153"/>
      <point x="685" y="340" type="curve" smooth="yes"/>
      <point x="685" y="526"/>
      <point x="533" y="677"/>
      <point x="347" y="677" type="curve" smooth="yes"/>
      <point x="160" y="677"/>
      <point x="11" y="526"/>
      <point x="11" y="340" type="curve" smooth="yes"/>
    </contour>
    <contour>
      <point x="82" y="487"/>
      <point x="200" y="605"/>
      <point x="347" y="605" type="curve" smooth="yes"/>
      <point x="494" y="605"/>
      <point x="614" y="488"/>
      <point x="614" y="340" type="curve" smooth="yes"/>
      <point x="614" y="192"/>
      <point x="495" y="73"/>
      <point x="347" y="73" type="curve" smooth="yes"/>
      <point x="199" y="73"/>
      <point x="82" y="193"/>
      <point x="82" y="340" type="curve" smooth="yes"/>
    </contour>
    <contour>
      <point x="452" y="522"/>
      <point x="432" y="568"/>
      <point x="350" y="568" type="curve" smooth="yes"/>
      <point x="257" y="568" type="line"/>
      <point x="257" y="132" type="line"/>
      <point x="327" y="132" type="line"/>
      <point x="327" y="316" type="line"/>
      <point x="346" y="316" type="line" smooth="yes"/>
      <point x="368" y="316"/>
      <point x="380" y="310"/>
      <point x="380" y="289" type="curve" smooth="yes"/>
      <point x="380" y="132" type="line"/>
      <point x="450" y="132" type="line"/>
      <point x="450" y="293" type="line" smooth="yes"/>
      <point x="450" y="317"/>
      <point x="440" y="339"/>
      <point x="426" y="355" type="curve"/>
      <point x="444" y="383"/>
      <point x="452" y="420"/>
      <point x="452" y="451" type="curve" smooth="yes"/>
    </contour>
    <contour>
      <point x="327" y="386" type="line"/>
      <point x="327" y="499" type="line"/>
      <point x="346" y="499" type="line" smooth="yes"/>
      <point x="374" y="499"/>
      <point x="383" y="480"/>
      <point x="383" y="451" type="curve" smooth="yes"/>
      <point x="383" y="420"/>
      <point x="377" y="386"/>
      <point x="346" y="386" type="curve" smooth="yes"/>
    </contour>
  </outline>
</glyph>
<glyph name="acute" format="1">
  <advance width="217"/>
  <unicode hex="00B4"/>
  <outline>
    <contour>
      <point x="96" y="572" type="line"/>
      <point x="138" y="647" type="line"/>
      <point x="157" y="647" type="line"/>
      <point x="109" y="572" type="line"/>
    </contour>
    <contour>
      <point x="123" y="545" type="line"/>
      <point x="207" y="675" type="line"/>
      <point x="122" y="675" type="line"/>
      <point x="49" y="545" type="line"/>
    </contour>
  </outline>
</glyph>
<glyph name="cedilla" format="1">
  <advance width="184"/>
  <unicode hex="00B8"/>
  <outline>
    <contour>
      <point x="85" y="-27"/>
      <point x="64" y="-16"/>
      <point x="47" y="-12" type="curve"/>
      <point x="50" y="-11"/>
      <point x="52" y="-10"/>
      <point x="55" y="-9" type="curve"/>
      <point x="59" y="-8"/>
      <point x="64" y="-7"/>
      <point x="69" y="-7" type="curve" smooth="yes"/>
      <point x="73" y="-7"/>
      <point x="77" y="-7"/>
      <point x="80" y="-8" type="curve"/>
      <point x="94" y="-11"/>
      <point x="104" y="-22"/>
      <point x="104" y="-39" type="curve" smooth="yes"/>
      <point x="104" y="-62"/>
      <point x="83" y="-83"/>
      <point x="62" y="-88" type="curve"/>
      <point x="60" y="-81" type="line"/>
      <point x="71" y="-75"/>
      <point x="85" y="-61"/>
      <point x="85" y="-48" type="curve" smooth="yes"/>
    </contour>
    <contour>
      <point x="58" y="-51"/>
      <point x="37" y="-62"/>
      <point x="23" y="-69" type="curve"/>
      <point x="48" y="-120" type="line"/>
      <point x="90" y="-109"/>
      <point x="131" y="-75"/>
      <point x="131" y="-39" type="curve" smooth="yes"/>
      <point x="131" y="-5"/>
      <point x="100" y="19"/>
      <point x="71" y="19" type="curve"/>
      <point x="71" y="41" type="line"/>
      <point x="36" y="41" type="line" smooth="yes"/>
      <point x="36" y="41"/>
      <point x="36" y="22"/>
      <point x="36" y="15" type="curve" smooth="yes"/>
      <point x="36" y="-38" type="line"/>
      <point x="46" y="-39"/>
      <point x="58" y="-43"/>
      <point x="58" y="-48" type="curve" smooth="yes"/>
    </contour>
  </outline>
</glyph>
<glyph name="questiondown" format="1">
  <advance width="346"/>
  <unicode hex="00BF"/>
  <outline>
    <contour>
      <point x="191" y="551" type="line"/>
      <point x="118" y="551" type="line"/>
      <point x="118" y="512" type="line" smooth="yes"/>
      <point x="118" y="451"/>
      <point x="115" y="416"/>
      <point x="81" y="370" type="curve"/>
      <point x="36" y="314"/>
      <point x="-2" y="254"/>
      <point x="-2" y="173" type="curve" smooth="yes"/>
      <point x="-2" y="77"/>
      <point x="37" y="-5"/>
      <point x="148" y="-5" type="curve" smooth="yes"/>
      <point x="269" y="-5"/>
      <point x="300" y="127"/>
      <point x="300" y="232" type="curve"/>
      <point x="227" y="232" type="line"/>
      <point x="227" y="163"/>
      <point x="212" y="69"/>
      <point x="149" y="69" type="curve" smooth="yes"/>
      <point x="87" y="69"/>
      <point x="72" y="119"/>
      <point x="72" y="177" type="curve" smooth="yes"/>
      <point x="72" y="236"/>
      <point x="92" y="264"/>
      <point x="115" y="295" type="curve"/>
      <point x="115" y="294" type="line"/>
      <point x="151" y="343"/>
      <point x="191" y="359"/>
      <point x="191" y="508" type="curve" smooth="yes"/>
    </contour>
    <contour>
      <point x="118" y="675" type="line"/>
      <point x="118" y="591" type="line"/>
      <point x="191" y="591" type="line"/>
      <point x="191" y="675" type="line"/>
    </contour>
    <contour>
      <point x="164" y="647" type="line"/>
      <point x="164" y="618" type="line"/>
      <point x="145" y="618" type="line"/>
      <point x="145" y="647" type="line"/>
    </contour>
    <contour>
      <point x="164" y="508" type="line" smooth="yes"/>
      <point x="164" y="303"/>
      <point x="44" y="328"/>
      <point x="44" y="177" type="curve" smooth="yes"/>
      <point x="44" y="105"/>
      <point x="65" y="41"/>
      <point x="149" y="41" type="curve" smooth="yes"/>
      <point x="235" y="41"/>
      <point x="255" y="136"/>
      <point x="255" y="205" type="curve"/>
      <point x="272" y="205" type="line"/>
      <point x="272" y="124"/>
      <point x="247" y="23"/>
      <point x="148" y="23" type="curve" smooth="yes"/>
      <point x="57" y="23"/>
      <point x="26" y="92"/>
      <point x="26" y="173" type="curve" smooth="yes"/>
      <point x="26" y="251"/>
      <point x="55" y="295"/>
      <point x="102" y="353" type="curve"/>
      <point x="102" y="353" type="line"/>
      <point x="145" y="417"/>
      <point x="145" y="475"/>
      <point x="145" y="523" type="curve"/>
      <point x="164" y="523" type="line"/>
    </contour>
  </outline>
</glyph>
<glyph name="Agrave" format="1">
  <advance width="435"/>
  <unicode hex="00C0"/>
  <outline>
    <contour>
      <point x="193" y="601" type="line"/>
      <point x="110" y="238" type="line"/>
      <point x="276" y="238" type="line"/>
    </contour>
    <contour>
      <point x="63" y="28" type="line"/>
      <point x="44" y="28" type="line"/>
      <point x="186" y="647" type="line"/>
      <point x="200" y="647" type="line"/>
      <point x="341" y="28" type="line"/>
      <point x="323" y="28" type="line"/>
      <point x="280" y="220" type="line"/>
      <point x="106" y="220" type="line"/>
    </contour>
    <contour>
      <point x="85" y="0" type="line"/>
      <point x="130" y="193" type="line"/>
      <point x="258" y="193" type="line"/>
      <point x="300" y="0" type="line"/>
      <point x="375" y="0" type="line"/>
      <point x="222" y="674" type="line"/>
      <point x="164" y="674" type="line"/>
      <point x="10" y="0" type="line"/>
    </contour>
    <contour>
      <point x="193" y="479" type="line"/>
      <point x="241" y="265" type="line"/>
      <point x="145" y="265" type="line"/>
    </contour>
    <contour>
      <point x="217" y="733" type="line"/>
      <point x="167" y="809" type="line"/>
      <point x="188" y="809" type="line"/>
      <point x="235" y="733" type="line"/>
    </contour>
    <contour>
      <point x="284" y="706" type="line"/>
      <point x="203" y="837" type="line"/>
      <point x="115" y="837" type="line"/>
      <point x="203" y="706" type="line"/>
    </contour>
  </outline>
</glyph>
<glyph name="Aacute" format="1">
  <advance width="435"/>
  <unicode hex="00C1"/>
  <outline>
    <contour>
      <point x="193" y="601" type="line"/>
      <point x="110" y="238" type="line"/>
      <point x="276" y="238" type="line"/>
    </contour>
    <contour>
      <point x="63" y="28" type="line"/>
      <point x="44" y="28" type="line"/>
      <point x="186" y="647" type="line"/>
      <point x="200" y="647" type="line"/>
      <point x="341" y="28" type="line"/>
      <point x="323" y="28" type="line"/>
      <point x="280" y="220" type="line"/>
      <point x="106" y="220" type="line"/>
    </contour>
    <contour>
      <point x="85" y="0" type="line"/>
      <point x="130" y="193" type="line"/>
      <point x="258" y="193" type="line"/>
      <point x="300" y="0" type="line"/>
      <point x="375" y="0" type="line"/>
      <point x="222" y="674" type="line"/>
      <point x="164" y="674" type="line"/>
      <point x="10" y="0" type="line"/>
    </contour>
    <contour>
      <point x="193" y="479" type="line"/>
      <point x="241" y="265" type="line"/>
      <point x="145" y="265" type="line"/>
    </contour>
    <contour>
      <point x="160" y="734" type="line"/>
      <point x="202" y="809" type="line"/>
      <point x="221" y="809" type="line"/>
      <point x="173" y="734" type="line"/>
    </contour>
    <contour>
      <point x="187" y="707" type="line"/>
      <point x="271" y="837" type="line"/>
      <point x="186" y="837" type="line"/>
      <point x="113" y="707" type="line"/>
    </contour>
  </outline>
</glyph>
<glyph name="Acircumflex" format="1">
  <advance width="435"/>
  <unicode hex="00C2"/>
  <outline>
    <contour>
      <point x="193" y="601" type="line"/>
      <point x="110" y="238" type="line"/>
      <point x="276" y="238" type="line"/>
    </contour>
    <contour>
      <point x="63" y="28" type="line"/>
      <point x="44" y="28" type="line"/>
      <point x="186" y="647" type="line"/>
      <point x="200" y="647" type="line"/>
      <point x="341" y="28" type="line"/>
      <point x="323" y="28" type="line"/>
      <point x="280" y="220" type="line"/>
      <point x="106" y="220" type="line"/>
    </contour>
    <contour>
      <point x="85" y="0" type="line"/>
      <point x="130" y="193" type="line"/>
      <point x="258" y="193" type="line"/>
      <point x="300" y="0" type="line"/>
      <point x="375" y="0" type="line"/>
      <point x="222" y="674" type="line"/>
      <point x="164" y="674" type="line"/>
      <point x="10" y="0" type="line"/>
    </contour>
    <contour>
      <point x="193" y="479" type="line"/>
      <point x="241" y="265" type="line"/>
      <point x="145" y="265" type="line"/>
    </contour>
    <contour>
      <point x="134" y="728" type="line"/>
      <point x="177" y="812" type="line"/>
      <point x="206" y="812" type="line"/>
      <point x="249" y="728" type="line"/>
      <point x="236" y="728" type="line"/>
      <point x="194" y="793" type="line"/>
      <point x="188" y="793" type="line"/>
      <point x="149" y="728" type="line"/>
    </contour>
    <contour>
      <point x="164" y="700" type="line"/>
      <point x="192" y="744" type="line"/>
      <point x="223" y="700" type="line"/>
      <point x="297" y="700" type="line"/>
      <point x="223" y="840" type="line"/>
      <point x="160" y="840" type="line"/>
      <point x="90" y="700" type="line"/>
    </contour>
  </outline>
</glyph>
<glyph name="Aring" format="1">
  <advance width="435"/>
  <unicode hex="00C5"/>
  <outline>
    <contour>
      <point x="193" y="601" type="line"/>
      <point x="110" y="238" type="line"/>
      <point x="276" y="238" type="line"/>
    </contour>
    <contour>
      <point x="63" y="28" type="line"/>
      <point x="44" y="28" type="line"/>
      <point x="186" y="647" type="line"/>
      <point x="200" y="647" type="line"/>
      <point x="341" y="28" type="line"/>
      <point x="323" y="28" type="line"/>
      <point x="280" y="220" type="line"/>
      <point x="106" y="220" type="line"/>
    </contour>
    <contour>
      <point x="85" y="0" type="line"/>
      <point x="130" y="193" type="line"/>
      <point x="258" y="193" type="line"/>
      <point x="300" y="0" type="line"/>
      <point x="375" y="0" type="line"/>
      <point x="222" y="674" type="line"/>
      <point x="164" y="674" type="line"/>
      <point x="10" y="0" type="line"/>
    </contour>
    <contour>
      <point x="193" y="479" type="line"/>
      <point x="241" y="265" type="line"/>
      <point x="145" y="265" type="line"/>
    </contour>
    <contour>
      <point x="148" y="723"/>
      <point x="165" y="705"/>
      <point x="193" y="705" type="curve" smooth="yes"/>
      <point x="218" y="705"/>
      <point x="239" y="723"/>
      <point x="239" y="749" type="curve" smooth="yes"/>
      <point x="239" y="775"/>
      <point x="218" y="795"/>
      <point x="193" y="795" type="curve" smooth="yes"/>
      <point x="166" y="795"/>
      <point x="148" y="777"/>
      <point x="148" y="750" type="curve" smooth="yes"/>
    </contour>
    <contour>
      <point x="129" y="784"/>
      <point x="158" y="814"/>
      <point x="193" y="814" type="curve" smooth="yes"/>
      <point x="228" y="814"/>
      <point x="257" y="784"/>
      <point x="257" y="749" type="curve" smooth="yes"/>
      <point x="257" y="714"/>
      <point x="228" y="687"/>
      <point x="193" y="687" type="curve" smooth="yes"/>
      <point x="158" y="687"/>
      <point x="129" y="714"/>
      <point x="129" y="749" type="curve" smooth="yes"/>
    </contour>
    <contour>
      <point x="102" y="699"/>
      <point x="142" y="659"/>
      <point x="193" y="659" type="curve" smooth="yes"/>
      <point x="242" y="659"/>
      <point x="285" y="699"/>
      <point x="285" y="749" type="curve" smooth="yes"/>
      <point x="285" y="799"/>
      <point x="242" y="841"/>
      <point x="193" y="841" type="curve" smooth="yes"/>
      <point x="142" y="841"/>
      <point x="102" y="799"/>
      <point x="102" y="749" type="curve" smooth="yes"/>
    </contour>
    <contour>
      <point x="175" y="760"/>
      <point x="183" y="768"/>
      <point x="193" y="768" type="curve" smooth="yes"/>
      <point x="203" y="768"/>
      <point x="211" y="759"/>
      <point x="211" y="749" type="curve" smooth="yes"/>
      <point x="211" y="739"/>
      <point x="203" y="733"/>
      <point x="193" y="733" type="curve" smooth="yes"/>
      <point x="182" y="733"/>
      <point x="175" y="739"/>
      <point x="175" y="750" type="curve" smooth="yes"/>
    </contour>
  </outline>
</glyph>
<glyph name="AE" format="1">
  <advance width="569"/>
  <unicode hex="00C6"/>
  <outline>
    <contour>
      <point x="288" y="629" type="line"/>
      <point x="288" y="346" type="line"/>
      <point x="411" y="346" type="line"/>
      <point x="411" y="329" type="line"/>
      <point x="288" y="329" type="line"/>
      <point x="288" y="45" type="line"/>
      <point x="486" y="45" type="line"/>
      <point x="486" y="28" type="line"/>
      <point x="270" y="28" type="line"/>
      <point x="270" y="329" type="line"/>
      <point x="168" y="329" type="line"/>
      <point x="49" y="28" type="line"/>
      <point x="27" y="28" type="line"/>
      <point x="261" y="647" type="line"/>
      <point x="486" y="647" type="line"/>
      <point x="486" y="629" type="line"/>
    </contour>
    <contour>
      <point x="513" y="602" type="line"/>
      <point x="513" y="674" type="line"/>
      <point x="242" y="674" type="line"/>
      <point x="-14" y="0" type="line"/>
      <point x="68" y="0" type="line"/>
      <point x="186" y="301" type="line"/>
      <point x="242" y="301" type="line"/>
      <point x="242" y="0" type="line"/>
      <point x="513" y="0" type="line"/>
      <point x="513" y="73" type="line"/>
      <point x="316" y="73" type="line"/>
      <point x="316" y="301" type="line"/>
      <point x="438" y="301" type="line"/>
      <point x="438" y="374" type="line"/>
      <point x="316" y="374" type="line"/>
      <point x="316" y="602" type="line"/>
    </contour>
    <contour>
      <point x="259" y="575" type="line"/>
      <point x="169" y="346" type="line"/>
      <point x="270" y="346" type="line"/>
      <point x="270" y="529" type="line"/>
      <point x="270" y="605" type="line"/>
    </contour>
    <contour>
      <point x="209" y="374" type="line"/>
      <point x="242" y="457" type="line"/>
      <point x="242" y="374" type="line"/>
    </contour>
  </outline>
</glyph>
<glyph name="Ecircumflex" format="1">
  <advance width="323"/>
  <unicode hex="00CA"/>
  <outline>
    <contour>
      <point x="47" y="629" type="line"/>
      <point x="47" y="344" type="line"/>
      <point x="179" y="344" type="line"/>
      <point x="179" y="327" type="line"/>
      <point x="47" y="327" type="line"/>
      <point x="47" y="45" type="line"/>
      <point x="244" y="45" type="line"/>
      <point x="244" y="28" type="line"/>
      <point x="30" y="28" type="line"/>
      <point x="29" y="647" type="line"/>
      <point x="244" y="647" type="line"/>
      <point x="244" y="629" type="line"/>
    </contour>
    <contour>
      <point x="272" y="602" type="line"/>
      <point x="272" y="674" type="line"/>
      <point x="2" y="674" type="line"/>
      <point x="3" y="0" type="line"/>
      <point x="272" y="0" type="line"/>
      <point x="272" y="73" type="line"/>
      <point x="74" y="73" type="line"/>
      <point x="74" y="299" type="line"/>
      <point x="206" y="299" type="line"/>
      <point x="206" y="372" type="line"/>
      <point x="74" y="372" type="line"/>
      <point x="74" y="602" type="line"/>
    </contour>
    <contour>
      <point x="85" y="728" type="line"/>
      <point x="128" y="812" type="line"/>
      <point x="157" y="812" type="line"/>
      <point x="200" y="728" type="line"/>
      <point x="187" y="728" type="line"/>
      <point x="145" y="793" type="line"/>
      <point x="139" y="793" type="line"/>
      <point x="100" y="728" type="line"/>
    </contour>
    <contour>
      <point x="115" y="700" type="line"/>
      <point x="143" y="744" type="line"/>
      <point x="174" y="700" type="line"/>
      <point x="248" y="700" type="line"/>
      <point x="174" y="840" type="line"/>
      <point x="111" y="840" type="line"/>
      <point x="41" y="700" type="line"/>
    </contour>
  </outline>
</glyph>
<glyph name="Ntilde" format="1">
  <advance width="385"/>
  <unicode hex="00D1"/>
  <outline>
    <contour>
      <point x="49" y="28" type="line"/>
      <point x="30" y="28" type="line"/>
      <point x="30" y="647" type="line"/>
      <point x="46" y="647" type="line"/>
      <point x="272" y="85" type="line"/>
      <point x="272" y="647" type="line"/>
      <point x="289" y="647" type="line"/>
      <point x="289" y="28" type="line"/>
      <point x="274" y="28" type="line"/>
      <point x="198" y="215"/>
      <point x="125" y="402"/>
      <point x="49" y="590" type="curve"/>
    </contour>
    <contour>
      <point x="76" y="446" type="line"/>
      <point x="173" y="205"/>
      <point x="217" y="94"/>
      <point x="256" y="0" type="curve"/>
      <point x="317" y="0" type="line"/>
      <point x="317" y="674" type="line"/>
      <point x="244" y="674" type="line"/>
      <point x="244" y="228" type="line"/>
      <point x="64" y="674" type="line"/>
      <point x="3" y="674" type="line"/>
      <point x="3" y="0" type="line"/>
      <point x="76" y="0" type="line"/>
    </contour>
    <contour>
      <point x="270" y="750" type="line"/>
      <point x="255" y="744"/>
      <point x="238" y="738"/>
      <point x="222" y="738" type="curve" smooth="yes"/>
      <point x="175" y="738"/>
      <point x="141" y="777"/>
      <point x="98" y="777" type="curve" smooth="yes"/>
      <point x="78" y="777"/>
      <point x="61" y="768"/>
      <point x="47" y="754" type="curve"/>
      <point x="32" y="769" type="line"/>
      <point x="50" y="782"/>
      <point x="72" y="797"/>
      <point x="96" y="797" type="curve" smooth="yes"/>
      <point x="145" y="797"/>
      <point x="181" y="757"/>
      <point x="224" y="757" type="curve" smooth="yes"/>
      <point x="233" y="757"/>
      <point x="245" y="763"/>
      <point x="254" y="766" type="curve"/>
    </contour>
    <contour>
      <point x="260" y="801" type="line"/>
      <point x="246" y="792" type="line"/>
      <point x="238" y="788"/>
      <point x="228" y="785"/>
      <point x="224" y="785" type="curve" smooth="yes"/>
      <point x="209" y="785"/>
      <point x="193" y="793"/>
      <point x="175" y="801" type="curve"/>
      <point x="176" y="801" type="line"/>
      <point x="152" y="812"/>
      <point x="127" y="824"/>
      <point x="96" y="824" type="curve" smooth="yes"/>
      <point x="64" y="824"/>
      <point x="24" y="797"/>
      <point x="-10" y="773" type="curve"/>
      <point x="47" y="716" type="line"/>
      <point x="68" y="736"/>
      <point x="86" y="750"/>
      <point x="98" y="750" type="curve" smooth="yes"/>
      <point x="113" y="750"/>
      <point x="128" y="741"/>
      <point x="145" y="733" type="curve"/>
      <point x="168" y="721"/>
      <point x="191" y="710"/>
      <point x="222" y="710" type="curve" smooth="yes"/>
      <point x="243" y="710"/>
      <point x="282" y="725"/>
      <point x="316" y="738" type="curve"/>
    </contour>
  </outline>
</glyph>
<glyph name="germandbls" format="1">
  <advance width="346"/>
  <unicode hex="00DF"/>
  <outline>
    <contour>
      <point x="22" y="27" type="line"/>
      <point x="22" y="464" type="line" smooth="yes"/>
      <point x="22" y="541"/>
      <point x="42" y="632"/>
      <point x="135" y="632" type="curve" smooth="yes"/>
      <point x="225" y="632"/>
      <point x="249" y="566"/>
      <point x="249" y="487" type="curve" smooth="yes"/>
      <point x="249" y="437"/>
      <point x="232" y="349"/>
      <point x="172" y="337" type="curve"/>
      <point x="172" y="325" type="line"/>
      <point x="246" y="312"/>
      <point x="281" y="252"/>
      <point x="281" y="179" type="curve" smooth="yes"/>
      <point x="281" y="75"/>
      <point x="236" y="27"/>
      <point x="131" y="27" type="curve"/>
      <point x="131" y="44" type="line"/>
      <point x="226" y="44"/>
      <point x="264" y="85"/>
      <point x="264" y="179" type="curve" smooth="yes"/>
      <point x="264" y="262"/>
      <point x="213" y="315"/>
      <point x="131" y="321" type="curve"/>
      <point x="131" y="338" type="line"/>
      <point x="213" y="341"/>
      <point x="231" y="420"/>
      <point x="231" y="487" type="curve" smooth="yes"/>
      <point x="231" y="560"/>
      <point x="217" y="615"/>
      <point x="132" y="615" type="curve" smooth="yes"/>
      <point x="47" y="615"/>
      <point x="40" y="496"/>
      <point x="40" y="436" type="curve" smooth="yes"/>
      <point x="40" y="27" type="line"/>
    </contour>
    <contour>
      <point x="67" y="0" type="line"/>
      <point x="67" y="436" type="line" smooth="yes"/>
      <point x="67" y="487"/>
      <point x="72" y="588"/>
      <point x="132" y="588" type="curve" smooth="yes"/>
      <point x="194" y="588"/>
      <point x="205" y="545"/>
      <point x="205" y="487" type="curve" smooth="yes"/>
      <point x="205" y="432"/>
      <point x="186" y="367"/>
      <point x="105" y="364" type="curve"/>
      <point x="105" y="296" type="line"/>
      <point x="186" y="290"/>
      <point x="237" y="246"/>
      <point x="237" y="179" type="curve" smooth="yes"/>
      <point x="237" y="104"/>
      <point x="199" y="71"/>
      <point x="105" y="71" type="curve"/>
      <point x="105" y="0" type="line"/>
      <point x="247" y="0"/>
      <point x="308" y="56"/>
      <point x="308" y="179" type="curve" smooth="yes"/>
      <point x="308" y="247"/>
      <point x="280" y="306"/>
      <point x="224" y="336" type="curve"/>
      <point x="264" y="373"/>
      <point x="276" y="443"/>
      <point x="276" y="487" type="curve" smooth="yes"/>
      <point x="276" y="580"/>
      <point x="247" y="659"/>
      <point x="135" y="659" type="curve" smooth="yes"/>
      <point x="20" y="659"/>
      <point x="-5" y="554"/>
      <point x="-5" y="464" type="curve" smooth="yes"/>
      <point x="-5" y="0" type="line"/>
    </contour>
  </outline>
</glyph>
<glyph name="eacute" format="1">
  <advance width="323"/>
  <unicode hex="00E9"/>
  <outline>
    <contour>
      <point x="47" y="629" type="line"/>
      <point x="47" y="344" type="line"/>
      <point x="179" y="344" type="line"/>
      <point x="179" y="327" type="line"/>
      <point x="47" y="327" type="line"/>
      <point x="47" y="45" type="line"/>
      <point x="244" y="45" type="line"/>
      <point x="244" y="28" type="line"/>
      <point x="30" y="28" type="line"/>
      <point x="29" y="647" type="line"/>
      <point x="244" y="647" type="line"/>
      <point x="244" y="629" type="line"/>
    </contour>
    <contour>
      <point x="272" y="602" type="line"/>
      <point x="272" y="674" type="line"/>
      <point x="2" y="674" type="line"/>
      <point x="3" y="0" type="line"/>
      <point x="272" y="0" type="line"/>
      <point x="272" y="73" type="line"/>
      <point x="74" y="73" type="line"/>
      <point x="74" y="299" type="line"/>
      <point x="206" y="299" type="line"/>
      <point x="206" y="372" type="line"/>
      <point x="74" y="372" type="line"/>
      <point x="74" y="602" type="line"/>
    </contour>
    <contour>
      <point x="114" y="744" type="line"/>
      <point x="156" y="819" type="line"/>
      <point x="175" y="819" type="line"/>
      <point x="127" y="744" type="line"/>
    </contour>
    <contour>
      <point x="141" y="717" type="line"/>
      <point x="225" y="847" type="line"/>
      <point x="140" y="847" type="line"/>
      <point x="67" y="717" type="line"/>
    </contour>
  </outline>
</glyph>
<glyph name="igrave" format="1">
  <advance width="144"/>
  <unicode hex="00EC"/>
  <outline>
    <contour>
      <point x="34" y="28" type="line"/>
      <point x="34" y="647" type="line"/>
      <point x="53" y="647" type="line"/>
      <point x="53" y="28" type="line"/>
    </contour>
    <contour>
      <point x="80" y="0" type="line"/>
      <point x="80" y="674" type="line"/>
      <point x="7" y="674" type="line"/>
      <point x="7" y="0" type="line"/>
    </contour>
    <contour>
      <point x="53" y="740" type="line"/>
      <point x="3" y="816" type="line"/>
      <point x="24" y="816" type="line"/>
      <point x="71" y="740" type="line"/>
    </contour>
    <contour>
      <point x="120" y="713" type="line"/>
      <point x="39" y="844" type="line"/>
      <point x="-49" y="844" type="line"/>
      <point x="39" y="713" type="line"/>
    </contour>
  </outline>
</glyph>
<glyph name="icircumflex" format="1">
  <advance width="144"/>
  <unicode hex="00EE"/>
  <outline>
    <contour>
      <point x="34" y="28" type="line"/>
      <point x="34" y="647" type="line"/>
      <point x="53" y="647" type="line"/>
      <point x="53" y="28" type="line"/>
    </contour>
    <contour>
      <point x="80" y="0" type="line"/>
      <point x="80" y="674" type="line"/>
      <point x="7" y="674" type="line"/>
      <point x="7" y="0" type="line"/>
    </contour>
    <contour>
      <point x="-15" y="728" type="line"/>
      <point x="28" y="812" type="line"/>
      <point x="57" y="812" type="line"/>
      <point x="100" y="728" type="line"/>
      <point x="87" y="728" type="line"/>
      <point x="45" y="793" type="line"/>
      <point x="39" y="793" type="line"/>
      <point x="0" y="728" type="line"/>
    </contour>
    <contour>
      <point x="15" y="700" type="line"/>
      <point x="43" y="744" type="line"/>
      <point x="74" y="700" type="line"/>
      <point x="148" y="700" type="line"/>
      <point x="74" y="840" type="line"/>
      <point x="11" y="840" type="line"/>
      <point x="-59" y="700" type="line"/>
    </contour>
  </outline>
</glyph>
<glyph name="idieresis" format="1">
  <advance width="144"/>
  <unicode hex="00EF"/>
  <outline>
    <contour>
      <point x="34" y="28" type="line"/>
      <point x="34" y="647" type="line"/>
      <point x="53" y="647" type="line"/>
      <point x="53" y="28" type="line"/>
    </contour>
    <contour>
      <point x="80" y="0" type="line"/>
      <point x="80" y="674" type="line"/>
      <point x="7" y="674" type="line"/>
      <point x="7" y="0" type="line"/>
    </contour>
    <contour>
      <point x="125" y="748" type="line"/>
      <point x="107" y="748" type="line"/>
      <point x="107" y="777" type="line"/>
      <point x="125" y="777" type="line"/>
    </contour>
    <contour>
      <point x="-20" y="748" type="line"/>
      <point x="-39" y="748" type="line"/>
      <point x="-39" y="777" type="line"/>
      <point x="-20" y="777" type="line"/>
    </contour>
    <contour>
      <point x="7" y="805" type="line"/>
      <point x="-66" y="805" type="line"/>
      <point x="-66" y="721" type="line"/>
      <point x="7" y="721" type="line"/>
    </contour>
    <contour>
      <point x="153" y="805" type="line"/>
      <point x="79" y="805" type="line"/>
      <point x="79" y="721" type="line"/>
      <point x="153" y="721" type="line"/>
    </contour>
  </outline>
</glyph>
<glyph name="oslash" format="1">
  <advance width="391"/>
  <unicode hex="00F8"/>
  <outline>
    <contour>
      <point x="288" y="512"/>
      <point x="280" y="540"/>
      <point x="272" y="565" type="curve"/>
      <point x="79" y="84" type="line"/>
      <point x="102" y="59"/>
      <point x="134" y="45"/>
      <point x="168" y="45" type="curve" smooth="yes"/>
      <point x="253" y="45"/>
      <point x="288" y="112"/>
      <point x="288" y="189" type="curve" smooth="yes"/>
      <point x="288" y="486" type="line" smooth="yes"/>
    </contour>
    <contour>
      <point x="84" y="629"/>
      <point x="48" y="560"/>
      <point x="48" y="486" type="curve" smooth="yes"/>
      <point x="48" y="189" type="line" smooth="yes"/>
      <point x="48" y="160"/>
      <point x="56" y="130"/>
      <point x="66" y="103" type="curve"/>
      <point x="132" y="264"/>
      <point x="198" y="425"/>
      <point x="261" y="587" type="curve"/>
      <point x="238" y="616"/>
      <point x="204" y="629"/>
      <point x="168" y="629" type="curve" smooth="yes"/>
    </contour>
    <contour>
      <point x="305" y="647" type="line"/>
      <point x="280" y="586" type="line"/>
      <point x="298" y="556"/>
      <point x="306" y="521"/>
      <point x="306" y="486" type="curve" smooth="yes"/>
      <point x="306" y="189" type="line" smooth="yes"/>
      <point x="306" y="97"/>
      <point x="266" y="28"/>
      <point x="168" y="28" type="curve" smooth="yes"/>
      <point x="132" y="28"/>
      <point x="98" y="39"/>
      <point x="70" y="62" type="curve"/>
      <point x="66" y="51"/>
      <point x="60" y="39"/>
      <point x="56" y="28" type="curve"/>
      <point x="37" y="28" type="line"/>
      <point x="56" y="80" type="line"/>
      <point x="36" y="112"/>
      <point x="31" y="152"/>
      <point x="31" y="189" type="curve" smooth="yes"/>
      <point x="31" y="486" type="line" smooth="yes"/>
      <point x="31" y="573"/>
      <point x="72" y="647"/>
      <point x="168" y="647" type="curve" smooth="yes"/>
      <point x="205" y="647"/>
      <point x="240" y="631"/>
      <point x="269" y="606" type="curve"/>
      <point x="275" y="619"/>
      <point x="280" y="633"/>
      <point x="285" y="647" type="curve"/>
    </contour>
    <contour>
      <point x="264" y="674" type="line"/>
      <point x="256" y="649" type="line"/>
      <point x="229" y="665"/>
      <point x="200" y="674"/>
      <point x="168" y="674" type="curve" smooth="yes"/>
      <point x="53" y="674"/>
      <point x="3" y="588"/>
      <point x="3" y="486" type="curve" smooth="yes"/>
      <point x="3" y="189" type="line" smooth="yes"/>
      <point x="3" y="152"/>
      <point x="9" y="112"/>
      <point x="26" y="77" type="curve"/>
      <point x="-1" y="0" type="line"/>
      <point x="76" y="0" type="line"/>
      <point x="83" y="21" type="line"/>
      <point x="109" y="7"/>
      <point x="138" y="0"/>
      <point x="168" y="0" type="curve" smooth="yes"/>
      <point x="285" y="0"/>
      <point x="334" y="82"/>
      <point x="334" y="189" type="curve" smooth="yes"/>
      <point x="334" y="486" type="line" smooth="yes"/>
      <point x="334" y="522"/>
      <point x="327" y="556"/>
      <point x="311" y="588" type="curve"/>
      <point x="347" y="674" type="line"/>
    </contour>
    <contour>
      <point x="191" y="602"/>
      <point x="213" y="596"/>
      <point x="229" y="581" type="curve"/>
      <point x="177" y="448"/>
      <point x="129" y="331"/>
      <point x="76" y="199" type="curve"/>
      <point x="76" y="486" type="line" smooth="yes"/>
      <point x="76" y="546"/>
      <point x="103" y="602"/>
      <point x="168" y="602" type="curve" smooth="yes"/>
    </contour>
    <contour>
      <point x="76" y="199" type="line"/>
    </contour>
    <contour>
      <point x="147" y="73"/>
      <point x="127" y="80"/>
      <point x="111" y="91" type="curve"/>
      <point x="260" y="461" type="line"/>
      <point x="260" y="189" type="line" smooth="yes"/>
      <point x="260" y="127"/>
      <point x="234" y="73"/>
      <point x="168" y="73" type="curve" smooth="yes"/>
    </contour>
    <contour>
      <point x="260" y="460"/>
      <point x="260" y="461"/>
      <point x="260" y="461" type="curve"/>
    </contour>
  </outline>
</glyph>
<glyph name="thorn" format="1">
  <advance width="348"/>
  <unicode hex="00FE"/>
  <outline>
    <contour>
      <point x="75" y="501"/>
      <point x="52" y="434"/>
      <point x="52" y="366" type="curve" smooth="yes"/>
      <point x="52" y="321" type="line" smooth="yes"/>
      <point x="52" y="252"/>
      <point x="75" y="185"/>
      <point x="155" y="185" type="curve" smooth="yes"/>
      <point x="235" y="185"/>
      <point x="258" y="252"/>
      <point x="258" y="321" type="curve" smooth="yes"/>
      <point x="258" y="366" type="line" smooth="yes"/>
      <point x="258" y="434"/>
      <point x="235" y="501"/>
      <point x="155" y="501" type="curve" smooth="yes"/>
    </contour>
    <contour>
      <point x="111" y="167"/>
      <point x="71" y="181"/>
      <point x="50" y="231" type="curve"/>
      <point x="50" y="28" type="line"/>
      <point x="33" y="28" type="line"/>
      <point x="33" y="647" type="line"/>
      <point x="50" y="647" type="line"/>
      <point x="50" y="454" type="line"/>
      <point x="63" y="490"/>
      <point x="102" y="519"/>
      <point x="155" y="519" type="curve" smooth="yes"/>
      <point x="238" y="519"/>
      <point x="276" y="450"/>
      <point x="276" y="375" type="curve" smooth="yes"/>
      <point x="276" y="311" type="line" smooth="yes"/>
      <point x="276" y="235"/>
      <point x="239" y="167"/>
      <point x="155" y="167" type="curve" smooth="yes"/>
    </contour>
    <contour>
      <point x="259" y="140"/>
      <point x="304" y="220"/>
      <point x="304" y="311" type="curve" smooth="yes"/>
      <point x="304" y="375" type="line" smooth="yes"/>
      <point x="304" y="465"/>
      <point x="258" y="546"/>
      <point x="155" y="546" type="curve" smooth="yes"/>
      <point x="125" y="546"/>
      <point x="101" y="537"/>
      <point x="78" y="522" type="curve"/>
      <point x="78" y="674" type="line"/>
      <point x="5" y="674" type="line"/>
      <point x="5" y="0" type="line"/>
      <point x="78" y="0" type="line"/>
      <point x="78" y="163" type="line"/>
      <point x="100" y="148"/>
      <point x="125" y="140"/>
      <point x="155" y="140" type="curve" smooth="yes"/>
    </contour>
    <contour>
      <point x="214" y="473"/>
      <point x="230" y="421"/>
      <point x="230" y="366" type="curve" smooth="yes"/>
      <point x="230" y="321" type="line" smooth="yes"/>
      <point x="230" y="265"/>
      <point x="214" y="212"/>
      <point x="155" y="212" type="curve" smooth="yes"/>
      <point x="96" y="212"/>
      <point x="79" y="265"/>
      <point x="79" y="321" type="curve" smooth="yes"/>
      <point x="79" y="366" type="line" smooth="yes"/>
      <point x="79" y="421"/>
      <point x="96" y="473"/>
      <point x="155" y="473" type="curve" smooth="yes"/>
    </contour>
  </outline>
</glyph>
<glyph name="ydieresis" format="1">
  <advance width="353"/>
  <unicode hex="00FF"/>
  <outline>
    <contour>
      <point x="276" y="647" type="line"/>
      <point x="295" y="647" type="line"/>
      <point x="168" y="312" type="line"/>
      <point x="168" y="28" type="line"/>
      <point x="149" y="28" type="line"/>
      <point x="149" y="312" type="line"/>
      <point x="107" y="424"/>
      <point x="63" y="534"/>
      <point x="23" y="647" type="curve"/>
      <point x="42" y="647" type="line"/>
      <point x="159" y="337" type="line"/>
    </contour>
    <contour>
      <point x="257" y="674" type="line"/>
      <point x="227" y="592"/>
      <point x="192" y="502"/>
      <point x="159" y="416" type="curve"/>
      <point x="61" y="674" type="line"/>
      <point x="-17" y="674" type="line"/>
      <point x="5" y="613"/>
      <point x="43" y="512"/>
      <point x="121" y="307" type="curve"/>
      <point x="121" y="0" type="line"/>
      <point x="195" y="0" type="line"/>
      <point x="195" y="307" type="line"/>
      <point x="335" y="674" type="line"/>
    </contour>
    <contour>
      <point x="243" y="748" type="line"/>
      <point x="225" y="748" type="line"/>
      <point x="225" y="777" type="line"/>
      <point x="243" y="777" type="line"/>
    </contour>
    <contour>
      <point x="98" y="748" type="line"/>
      <point x="79" y="748" type="line"/>
      <point x="79" y="777" type="line"/>
      <point x="98" y="777" type="line"/>
    </contour>
    <contour>
      <point x="125" y="805" type="line"/>
      <point x="52" y="805" type="line"/>
      <point x="52" y="721" type="line"/>
      <point x="125" y="721" type="line"/>
    </contour>
    <contour>
      <point x="271" y="805" type="line"/>
      <point x="197" y="805" type="line"/>
      <point x="197" y="721" type="line"/>
      <point x="271" y="721" type="line"/>
    </contour>
  </outline>
</glyph>
<glyph name="lslash" format="1">
  <advance width="303"/>
  <unicode hex="0142"/>
  <outline>
    <contour>
      <point x="-75" y="344" type="line"/>
      <point x="21" y="344" type="line"/>
      <point x="21" y="647" type="line"/>
      <point x="40" y="647" type="line"/>
      <point x="40" y="344" type="line"/>
      <point x="136" y="344" type="line"/>
      <point x="136" y="326" type="line"/>
      <point x="40" y="326" type="line"/>
      <point x="40" y="45" type="line"/>
      <point x="232" y="45" type="line"/>
      <point x="232" y="28" type="line"/>
      <point x="21" y="28" type="line"/>
      <point x="21" y="326" type="line"/>
      <point x="-6" y="326" type="line"/>
      <point x="-75" y="326" type="line"/>
    </contour>
    <contour>
      <point x="-6" y="0" type="line"/>
      <point x="260" y="0" type="line"/>
      <point x="260" y="73" type="line"/>
      <point x="67" y="73" type="line"/>
      <point x="67" y="298" type="line"/>
      <point x="164" y="298" type="line"/>
      <point x="164" y="372" type="line"/>
      <point x="67" y="372" type="line"/>
      <point x="67" y="674" type="line"/>
      <point x="-6" y="674" type="line"/>
      <point x="-6" y="372" type="line"/>
      <point x="-103" y="372" type="line"/>
      <point x="-103" y="298" type="line"/>
      <point x="-6" y="298" type="line"/>
    </contour>
  </outline>
</glyph>
<glyph name="oe" format="1">
  <advance width="619"/>
  <unicode hex="0153"/>
  <outline>
    <contour>
      <point x="86" y="636"/>
      <point x="50" y="567"/>
      <point x="50" y="490" type="curve" smooth="yes"/>
      <point x="50" y="191" type="line" smooth="yes"/>
      <point x="50" y="113"/>
      <point x="85" y="45"/>
      <point x="172" y="45" type="curve" smooth="yes"/>
      <point x="259" y="45"/>
      <point x="293" y="119"/>
      <point x="293" y="197" type="curve" smooth="yes"/>
      <point x="293" y="490" type="line" smooth="yes"/>
      <point x="293" y="570"/>
      <point x="260" y="636"/>
      <point x="172" y="636" type="curve" smooth="yes"/>
    </contour>
    <contour>
      <point x="511" y="636" type="line"/>
      <point x="311" y="636" type="line"/>
      <point x="311" y="350" type="line"/>
      <point x="435" y="350" type="line"/>
      <point x="435" y="332" type="line"/>
      <point x="311" y="332" type="line"/>
      <point x="311" y="45" type="line"/>
      <point x="511" y="45" type="line"/>
      <point x="511" y="28" type="line"/>
      <point x="294" y="28" type="line"/>
      <point x="294" y="108" type="line"/>
      <point x="273" y="54"/>
      <point x="229" y="28"/>
      <point x="172" y="28" type="curve" smooth="yes"/>
      <point x="73" y="28"/>
      <point x="32" y="98"/>
      <point x="32" y="191" type="curve" smooth="yes"/>
      <point x="32" y="490" type="line" smooth="yes"/>
      <point x="32" y="579"/>
      <point x="75" y="653"/>
      <point x="172" y="653" type="curve" smooth="yes"/>
      <point x="222" y="653"/>
      <point x="275" y="635"/>
      <point x="294" y="584" type="curve"/>
      <point x="294" y="653" type="line"/>
      <point x="511" y="653" type="line"/>
    </contour>
    <contour>
      <point x="538" y="608" type="line"/>
      <point x="538" y="681" type="line"/>
      <point x="266" y="681" type="line"/>
      <point x="266" y="658" type="line"/>
      <point x="239" y="673"/>
      <point x="204" y="681"/>
      <point x="172" y="681" type="curve" smooth="yes"/>
      <point x="56" y="681"/>
      <point x="5" y="593"/>
      <point x="5" y="490" type="curve" smooth="yes"/>
      <point x="5" y="191" type="line" smooth="yes"/>
      <point x="5" y="83"/>
      <point x="53" y="0"/>
      <point x="172" y="0" type="curve" smooth="yes"/>
      <point x="208" y="0"/>
      <point x="240" y="9"/>
      <point x="266" y="28" type="curve"/>
      <point x="266" y="0" type="line"/>
      <point x="538" y="0" type="line"/>
      <point x="538" y="73" type="line"/>
      <point x="339" y="73" type="line"/>
      <point x="339" y="304" type="line"/>
      <point x="463" y="304" type="line"/>
      <point x="463" y="377" type="line"/>
      <point x="339" y="377" type="line"/>
      <point x="339" y="608" type="line"/>
    </contour>
    <contour>
      <point x="240" y="608"/>
      <point x="265" y="555"/>
      <point x="265" y="490" type="curve" smooth="yes"/>
      <point x="265" y="197" type="line" smooth="yes"/>
      <point x="265" y="133"/>
      <point x="239" y="73"/>
      <point x="172" y="73" type="curve" smooth="yes"/>
      <point x="105" y="73"/>
      <point x="78" y="128"/>
      <point x="78" y="191" type="curve" smooth="yes"/>
      <point x="78" y="490" type="line" smooth="yes"/>
      <point x="78" y="552"/>
      <point x="106" y="608"/>
      <point x="172" y="608" type="curve" smooth="yes"/>
    </contour>
  </outline>
</glyph>
<glyph name="circumflex" format="1">
  <advance width="186"/>
  <unicode hex="02C6"/>
  <outline>
    <contour>
      <point x="31" y="563" type="line"/>
      <point x="74" y="647" type="line"/>
      <point x="103" y="647" type="line"/>
      <point x="146" y="563" type="line"/>
      <point x="133" y="563" type="line"/>
      <point x="91" y="628" type="line"/>
      <point x="85" y="628" type="line"/>
      <point x="46" y="563" type="line"/>
    </contour>
    <contour>
      <point x="61" y="535" type="line"/>
      <point x="89" y="579" type="line"/>
      <point x="120" y="535" type="line"/>
      <point x="194" y="535" type="line"/>
      <point x="120" y="675" type="line"/>
      <point x="57" y="675" type="line"/>
      <point x="-13" y="535" type="line"/>
    </contour>
  </outline>
</glyph>
<glyph name="caron" format="1">
  <advance width="188"/>
  <unicode hex="02C7"/>
  <outline>
    <contour>
      <point x="56" y="697" type="line"/>
      <point x="96" y="632" type="line"/>
      <point x="103" y="632" type="line"/>
      <point x="142" y="697" type="line"/>
      <point x="156" y="697" type="line"/>
      <point x="113" y="613" type="line"/>
      <point x="85" y="613" type="line"/>
      <point x="41" y="697" type="line"/>
    </contour>
    <contour>
      <point x="-3" y="725" type="line"/>
      <point x="69" y="585" type="line"/>
      <point x="131" y="585" type="line"/>
      <point x="205" y="725" type="line"/>
      <point x="128" y="725" type="line"/>
      <point x="99" y="680" type="line"/>
      <point x="72" y="725" type="line"/>
    </contour>
  </outline>
</glyph>
<glyph name="ring" format="1">
  <advance width="190"/>
  <unicode hex="02DA"/>
  <outline>
    <contour>
      <point x="41" y="543"/>
      <point x="58" y="525"/>
      <point x="86" y="525" type="curve" smooth="yes"/>
      <point x="111" y="525"/>
      <point x="132" y="543"/>
      <point x="132" y="569" type="curve" smooth="yes"/>
      <point x="132" y="595"/>
      <point x="111" y="615"/>
      <point x="86" y="615" type="curve" smooth="yes"/>
      <point x="59" y="615"/>
      <point x="41" y="597"/>
      <point x="41" y="570" type="curve" smooth="yes"/>
    </contour>
    <contour>
      <point x="22" y="604"/>
      <point x="51" y="634"/>
      <point x="86" y="634" type="curve" smooth="yes"/>
      <point x="121" y="634"/>
      <point x="150" y="604"/>
      <point x="150" y="569" type="curve" smooth="yes"/>
      <point x="150" y="534"/>
      <point x="121" y="507"/>
      <point x="86" y="507" type="curve" smooth="yes"/>
      <point x="51" y="507"/>
      <point x="22" y="534"/>
      <point x="22" y="569" type="curve" smooth="yes"/>
    </contour>
    <contour>
      <point x="-5" y="519"/>
      <point x="35" y="479"/>
      <point x="86" y="479" type="curve" smooth="yes"/>
      <point x="135" y="479"/>
      <point x="178" y="519"/>
      <point x="178" y="569" type="curve" smooth="yes"/>
      <point x="178" y="619"/>
      <point x="135" y="661"/>
      <point x="86" y="661" type="curve" smooth="yes"/>
      <point x="35" y="661"/>
      <point x="-5" y="619"/>
      <point x="-5" y="569" type="curve" smooth="yes"/>
    </contour>
    <contour>
      <point x="68" y="580"/>
      <point x="76" y="588"/>
      <point x="86" y="588" type="curve" smooth="yes"/>
      <point x="96" y="588"/>
      <point x="104" y="579"/>
      <point x="104" y="569" type="curve" smooth="yes"/>
      <point x="104" y="559"/>
      <point x="96" y="553"/>
      <point x="86" y="553" type="curve" smooth="yes"/>
      <point x="75" y="553"/>
      <point x="68" y="559"/>
      <point x="68" y="570" type="curve" smooth="yes"/>
    </contour>
  </outline>
</glyph>
<glyph name="tilde" format="1">
  <advance width="317"/>
  <unicode hex="02DC"/>
  <outline>
    <contour>
      <point x="265" y="631" type="line"/>
      <point x="250" y="625"/>
      <point x="233" y="619"/>
      <point x="217" y="619" type="curve" smooth="yes"/>
      <point x="170" y="619"/>
      <point x="136" y="658"/>
      <point x="93" y="658" type="curve" smooth="yes"/>
      <point x="73" y="658"/>
      <point x="56" y="649"/>
      <point x="42" y="635" type="curve"/>
      <point x="27" y="650" type="line"/>
      <point x="45" y="663"/>
      <point x="67" y="678"/>
      <point x="91" y="678" type="curve" smooth="yes"/>
      <point x="140" y="678"/>
      <point x="176" y="638"/>
      <point x="219" y="638" type="curve" smooth="yes"/>
      <point x="228" y="638"/>
      <point x="240" y="644"/>
      <point x="249" y="647" type="curve"/>
    </contour>
    <contour>
      <point x="255" y="682" type="line"/>
      <point x="241" y="673" type="line"/>
      <point x="233" y="669"/>
      <point x="223" y="666"/>
      <point x="219" y="666" type="curve" smooth="yes"/>
      <point x="204" y="666"/>
      <point x="188" y="674"/>
      <point x="170" y="682" type="curve"/>
      <point x="171" y="682" type="line"/>
      <point x="147" y="693"/>
      <point x="122" y="705"/>
      <point x="91" y="705" type="curve" smooth="yes"/>
      <point x="59" y="705"/>
      <point x="19" y="678"/>
      <point x="-15" y="654" type="curve"/>
      <point x="42" y="597" type="line"/>
      <point x="63" y="617"/>
      <point x="81" y="631"/>
      <point x="93" y="631" type="curve" smooth="yes"/>
      <point x="108" y="631"/>
      <point x="123" y="622"/>
      <point x="140" y="614" type="curve"/>
      <point x="163" y="602"/>
      <point x="186" y="591"/>
      <point x="217" y="591" type="curve" smooth="yes"/>
      <point x="238" y="591"/>
      <point x="277" y="606"/>
      <point x="311" y="619" type="curve"/>
    </contour>
  </outline>
</glyph>
<glyph name="quoteright" format="1">
  <advance width="101"/>
  <unicode hex="2019"/>
  <outline>
    <contour>
      <point x="26" y="647" type="line"/>
      <point x="44" y="647" type="line"/>
      <point x="44" y="576" type="line"/>
      <point x="26" y="576" type="line"/>
    </contour>
    <contour>
      <point x="-1" y="674" type="line"/>
      <point x="-1" y="548" type="line"/>
      <point x="72" y="548" type="line"/>
      <point x="72" y="674" type="line"/>
    </contour>
  </outline>
</glyph>
<glyph name="quotedblright" format="1">
  <advance width="191"/>
  <unicode hex="201D"/>
  <outline>
    <contour>
      <point x="36" y="647" type="line"/>
      <point x="54" y="647" type="line"/>
      <point x="54" y="576" type="line"/>
      <point x="36" y="576" type="line"/>
    </contour>
    <contour>
      <point x="9" y="674" type="line"/>
      <point x="9" y="548" type="line"/>
      <point x="82" y="548" type="line"/>
      <point x="82" y="674" type="line"/>
    </contour>
    <contour>
      <point x="136" y="647" type="line"/>
      <point x="154" y="647" type="line"/>
      <point x="154" y="576" type="line"/>
      <point x="136" y="576" type="line"/>
    </contour>
    <contour>
      <point x="109" y="674" type="line"/>
      <point x="109" y="548" type="line"/>
      <point x="182" y="548" type="line"/>
      <point x="182" y="674" type="line"/>
    </contour>
  </outline>
</glyph>
<glyph name="guilsinglleft" format="1">
  <advance width="395"/>
  <unicode hex="2039"/>
  <outline>
    <contour>
      <point x="310" y="647" type="line"/>
      <point x="65" y="337" type="line"/>
      <point x="310" y="28" type="line"/>
      <point x="288" y="28" type="line"/>
      <point x="44" y="337" type="line"/>
      <point x="288" y="647" type="line"/>
    </contour>
    <contour>
      <point x="274" y="674" type="line"/>
      <point x="8" y="337" type="line"/>
      <point x="275" y="0" type="line"/>
      <point x="367" y="0" type="line"/>
      <point x="101" y="337" type="line"/>
      <point x="367" y="674" type="line"/>
    </contour>
  </outline>
</glyph>
<glyph name="guilsinglright" format="1">
  <advance width="395"/>
  <unicode hex="203A"/>
  <outline>
    <contour>
      <point x="68" y="647" type="line"/>
      <point x="312" y="337" type="line"/>
      <point x="68" y="28" type="line"/>
      <point x="48" y="28" type="line"/>
      <point x="292" y="337" type="line"/>
      <point x="48" y="647" type="line"/>
    </contour>
    <contour>
      <point x="-10" y="674" type="line"/>
      <point x="66" y="577"/>
      <point x="177" y="439"/>
      <point x="256" y="337" type="curve"/>
      <point x="-10" y="0" type="line"/>
      <point x="82" y="0" type="line"/>
      <point x="348" y="337" type="line"/>
      <point x="82" y="674" type="line"/>
    </contour>
  </outline>
</glyph>
<glyph name="Euro" format="1">
  <advance width="386"/>
  <unicode hex="20AC"/>
  <outline>
    <contour>
      <point x="216" y="224" type="line"/>
      <point x="65" y="224" type="line"/>
      <point x="65" y="139"/>
      <point x="77" y="46"/>
      <point x="186" y="46" type="curve" smooth="yes"/>
      <point x="217" y="46"/>
      <point x="257" y="57"/>
      <point x="276" y="84" type="curve"/>
      <point x="282" y="81"/>
      <point x="288" y="78"/>
      <point x="295" y="78" type="curve"/>
      <point x="271" y="47"/>
      <point x="225" y="28"/>
      <point x="186" y="28" type="curve" smooth="yes"/>
      <point x="63" y="28"/>
      <point x="47" y="122"/>
      <point x="47" y="224" type="curve"/>
      <point x="-9" y="224" type="line"/>
      <point x="-9" y="242" type="line"/>
      <point x="47" y="242" type="line"/>
      <point x="47" y="393" type="line"/>
      <point x="-9" y="393" type="line"/>
      <point x="-9" y="411" type="line"/>
      <point x="47" y="411" type="line"/>
      <point x="47" y="519"/>
      <point x="41" y="647"/>
      <point x="186" y="647" type="curve" smooth="yes"/>
      <point x="219" y="647"/>
      <point x="263" y="635"/>
      <point x="286" y="609" type="curve"/>
      <point x="273" y="596" type="line"/>
      <point x="250" y="616"/>
      <point x="216" y="629"/>
      <point x="186" y="629" type="curve" smooth="yes"/>
      <point x="102" y="629"/>
      <point x="65" y="563"/>
      <point x="65" y="486" type="curve" smooth="yes"/>
      <point x="65" y="411" type="line"/>
      <point x="216" y="411" type="line"/>
      <point x="216" y="393" type="line"/>
      <point x="65" y="393" type="line"/>
      <point x="65" y="242" type="line"/>
      <point x="216" y="242" type="line"/>
    </contour>
    <contour>
      <point x="244" y="270" type="line"/>
      <point x="92" y="270" type="line"/>
      <point x="92" y="366" type="line"/>
      <point x="244" y="366" type="line"/>
      <point x="244" y="438" type="line"/>
      <point x="92" y="438" type="line"/>
      <point x="92" y="486" type="line" smooth="yes"/>
      <point x="92" y="548"/>
      <point x="121" y="602"/>
      <point x="186" y="602" type="curve" smooth="yes"/>
      <point x="210" y="602"/>
      <point x="245" y="585"/>
      <point x="274" y="558" type="curve"/>
      <point x="324" y="608" type="line"/>
      <point x="284" y="653"/>
      <point x="226" y="674"/>
      <point x="186" y="674" type="curve" smooth="yes"/>
      <point x="25" y="674"/>
      <point x="19" y="553"/>
      <point x="19" y="438" type="curve"/>
      <point x="-37" y="438" type="line"/>
      <point x="-37" y="366" type="line"/>
      <point x="19" y="366" type="line"/>
      <point x="19" y="270" type="line"/>
      <point x="-37" y="270" type="line"/>
      <point x="-37" y="197" type="line"/>
      <point x="19" y="197" type="line"/>
      <point x="23" y="91"/>
      <point x="50" y="0"/>
      <point x="186" y="0" type="curve" smooth="yes"/>
      <point x="232" y="0"/>
      <point x="287" y="22"/>
      <point x="337" y="88" type="curve"/>
      <point x="338" y="86"/>
      <point x="281" y="112"/>
      <point x="268" y="118" type="curve"/>
      <point x="245" y="86"/>
      <point x="211" y="73"/>
      <point x="186" y="73" type="curve" smooth="yes"/>
      <point x="112" y="73"/>
      <point x="95" y="133"/>
      <point x="92" y="197" type="curve"/>
      <point x="244" y="197" type="line"/>
    </contour>
  </outline>
</glyph>
<glyph name="minus" format="1">
  <advance width="319"/>
  <unicode hex="2212"/>
  <outline>
    <contour>
      <point x="33" y="328" type="line"/>
      <point x="33" y="345" type="line"/>
      <point x="249" y="345" type="line"/>
      <point x="249" y="328" type="line"/>
    </contour>
    <contour>
      <point x="276" y="300" type="line"/>
      <point x="276" y="373" type="line"/>
      <point x="5" y="373" type="line"/>
      <point x="5" y="300" type="line"/>
    </contour>
  </outline>
</glyph>
<glyph name="fi" format="1">
  <advance width="329"/>
  <unicode hex="FB01"/>
  <outline>
    <contour>
      <point x="229" y="27" type="line"/>
      <point x="229" y="615" type="line"/>
      <point x="45" y="615" type="line"/>
      <point x="45" y="338" type="line"/>
      <point x="164" y="338" type="line"/>
      <point x="164" y="321" type="line"/>
      <point x="45" y="321" type="line"/>
      <point x="45" y="27" type="line"/>
      <point x="28" y="27" type="line"/>
      <point x="28" y="632" type="line"/>
      <point x="247" y="632" type="line"/>
      <point x="247" y="27" type="line"/>
    </contour>
    <contour>
      <point x="273" y="0" type="line"/>
      <point x="273" y="659" type="line"/>
      <point x="1" y="659" type="line"/>
      <point x="1" y="0" type="line"/>
      <point x="72" y="0" type="line"/>
      <point x="72" y="295" type="line"/>
      <point x="191" y="295" type="line"/>
      <point x="191" y="365" type="line"/>
      <point x="72" y="365" type="line"/>
      <point x="72" y="588" type="line"/>
      <point x="202" y="588" type="line"/>
      <point x="202" y="0" type="line"/>
    </contour>
  </outline>
</glyph>
